<svg width="202" height="209" viewBox="0 0 202 209" fill="none" xmlns="http://www.w3.org/2000/svg">
<path d="M112.385 8.95721L137.945 66.012H187.672C190.18 65.9101 192.657 66.6128 194.765 68.0243C196.872 69.4357 198.508 71.4869 199.447 73.8974C200.387 76.308 200.585 78.9603 200.014 81.4918C199.443 84.0233 198.132 86.3105 196.259 88.0406L153.161 132.029L177.08 188.93C178.124 191.535 178.354 194.413 177.737 197.161C177.12 199.908 175.688 202.386 173.641 204.247C171.594 206.107 169.036 207.257 166.326 207.534C163.616 207.81 160.89 207.201 158.532 205.79L100.732 172.12L42.8652 205.79C40.5069 207.201 37.7813 207.81 35.0712 207.534C32.3612 207.257 29.803 206.107 27.7562 204.247C25.7094 202.386 24.2769 199.908 23.66 197.161C23.043 194.413 23.2727 191.535 24.3167 188.93L48.2358 132.064L5.13843 88.075C3.25046 86.3576 1.92212 84.0769 1.33584 81.5461C0.749563 79.0153 0.934116 76.3586 1.86415 73.9408C2.79419 71.523 4.42408 69.4628 6.52997 68.0431C8.63586 66.6234 11.1144 65.9139 13.6253 66.012H63.353L88.8799 8.95721C90.0019 6.73363 91.6904 4.87084 93.7622 3.57102C95.834 2.27119 98.21 1.58398 100.632 1.58398C103.054 1.58398 105.43 2.27119 107.502 3.57102C109.574 4.87084 111.263 6.73363 112.385 8.95721Z" fill="white" stroke="url(#paint0_linear_355_2863)" stroke-width="2" stroke-linecap="round" stroke-linejoin="round"/>
<defs>
<linearGradient id="paint0_linear_355_2863" x1="200.333" y1="57.2637" x2="-12.1174" y2="106.821" gradientUnits="userSpaceOnUse">
<stop stop-color="#ED3957"/>
<stop offset="1" stop-color="#F8524B"/>
</linearGradient>
</defs>
</svg>
