<svg width="24" height="24" viewBox="0 0 24 24" fill="none" xmlns="http://www.w3.org/2000/svg">
<path d="M19.88 13.2599H14.26V10.7799C14.26 10.6972 14.2437 10.6152 14.212 10.5388C14.1804 10.4624 14.134 10.3929 14.0755 10.3344C14.017 10.2759 13.9475 10.2295 13.8711 10.1979C13.7947 10.1662 13.7127 10.1499 13.63 10.1499C13.5473 10.1499 13.4653 10.1662 13.3889 10.1979C13.3125 10.2295 13.243 10.2759 13.1845 10.3344C13.126 10.3929 13.0796 10.4624 13.048 10.5388C13.0163 10.6152 13 10.6972 13 10.7799V13.2599H11.13C10.6331 13.2625 10.1575 13.4618 9.8071 13.8141C9.45669 14.1663 9.25999 14.643 9.26 15.1399V20.7599H7.38C7.22785 20.7792 7.08796 20.8533 6.98656 20.9684C6.88516 21.0834 6.82921 21.2315 6.82921 21.3849C6.82921 21.5383 6.88516 21.6864 6.98656 21.8014C7.08796 21.9165 7.22785 21.9906 7.38 22.0099H21.13C21.2954 22.0099 21.4541 21.9449 21.572 21.8289C21.6898 21.7129 21.7574 21.5552 21.76 21.3899V15.1399C21.76 14.6413 21.5619 14.1631 21.2094 13.8105C20.8568 13.458 20.3786 13.2599 19.88 13.2599ZM20.5 20.7599H10.5V15.1399C10.5 15.0572 10.5163 14.9752 10.548 14.8988C10.5796 14.8224 10.626 14.7529 10.6845 14.6944C10.743 14.6359 10.8125 14.5895 10.8889 14.5579C10.9653 14.5262 11.0473 14.5099 11.13 14.5099H19.88C20.0453 14.5125 20.203 14.5801 20.319 14.6979C20.435 14.8158 20.5 14.9745 20.5 15.1399V20.7599Z" fill="#666666"/>
<path d="M3.63 9.51001C3.46463 9.50999 3.30589 9.57499 3.18802 9.69098C3.07016 9.80698 3.00262 9.96466 3 10.13V21.39C3 21.5571 3.06637 21.7173 3.18452 21.8355C3.30267 21.9536 3.46291 22.02 3.63 22.02C3.79709 22.02 3.95733 21.9536 4.07548 21.8355C4.19363 21.7173 4.26 21.5571 4.26 21.39V10.13C4.25738 9.96466 4.18984 9.80698 4.07198 9.69098C3.95411 9.57499 3.79537 9.50999 3.63 9.51001Z" fill="#666666"/>
<path d="M8.63 10.76C9.49671 10.762 10.3445 10.5068 11.0661 10.0267C11.7877 9.54662 12.3507 8.86325 12.6837 8.06308C13.0168 7.26292 13.1049 6.38194 12.9371 5.53164C12.7692 4.68135 12.3528 3.89997 11.7407 3.28642C11.1285 2.67286 10.3481 2.25471 9.49818 2.0849C8.64827 1.91508 7.76709 2.00123 6.96616 2.33245C6.16524 2.66367 5.48059 3.22505 4.99886 3.94556C4.51714 4.66606 4.26 5.51328 4.26 6.37999C4.26 7.53991 4.72009 8.65247 5.53933 9.47359C6.35858 10.2947 7.47009 10.7573 8.63 10.76ZM8.63 3.25999C9.24948 3.25999 9.85503 3.44382 10.37 3.78819C10.8849 4.13257 11.2861 4.622 11.5227 5.19451C11.7593 5.76703 11.8207 6.39688 11.6991 7.00431C11.5775 7.61174 11.2784 8.16944 10.8397 8.60677C10.4009 9.04411 9.8423 9.34142 9.23448 9.46106C8.62666 9.5807 7.99701 9.51729 7.42526 9.27885C6.8535 9.04042 6.36536 8.63768 6.02263 8.12164C5.67991 7.6056 5.49802 6.99947 5.5 6.37999C5.50265 5.5516 5.83358 4.75804 6.42028 4.17321C7.00699 3.58838 7.8016 3.25999 8.63 3.25999Z" fill="#666666"/>
<path d="M7.38 7.01H8V7.63C8 7.71273 8.01629 7.79466 8.04796 7.87109C8.07962 7.94753 8.12602 8.01698 8.18452 8.07548C8.24302 8.13398 8.31247 8.18038 8.38891 8.21204C8.46534 8.2437 8.54727 8.26 8.63 8.26C8.71273 8.26 8.79465 8.2437 8.87109 8.21204C8.94753 8.18038 9.01698 8.13398 9.07548 8.07548C9.13398 8.01698 9.18038 7.94753 9.21204 7.87109C9.2437 7.79466 9.26 7.71273 9.26 7.63V7.01H9.88C10.0321 6.99072 10.172 6.91659 10.2734 6.80153C10.3748 6.68647 10.4308 6.53837 10.4308 6.385C10.4308 6.23163 10.3748 6.08353 10.2734 5.96847C10.172 5.85341 10.0321 5.77928 9.88 5.76H9.26V5.13C9.26 4.96291 9.19362 4.80267 9.07548 4.68452C8.95733 4.56637 8.79709 4.5 8.63 4.5C8.46291 4.5 8.30267 4.56637 8.18452 4.68452C8.06637 4.80267 8 4.96291 8 5.13V5.76H7.38C7.22785 5.77928 7.08796 5.85341 6.98656 5.96847C6.88516 6.08353 6.82921 6.23163 6.82921 6.385C6.82921 6.53837 6.88516 6.68647 6.98656 6.80153C7.08796 6.91659 7.22785 6.99072 7.38 7.01Z" fill="#666666"/>
<path d="M6.13 13.2599C6.04129 13.2486 5.9512 13.2564 5.86572 13.2827C5.78025 13.3089 5.70134 13.3531 5.63425 13.4122C5.56717 13.4713 5.51343 13.5441 5.47663 13.6256C5.43982 13.7071 5.42078 13.7955 5.42078 13.8849C5.42078 13.9743 5.43982 14.0627 5.47663 14.1442C5.51343 14.2257 5.56717 14.2984 5.63425 14.3575C5.70134 14.4167 5.78025 14.4608 5.86572 14.4871C5.9512 14.5134 6.04129 14.5211 6.13 14.5099H7.38C7.53215 14.4906 7.67204 14.4165 7.77344 14.3014C7.87484 14.1863 7.93078 14.0382 7.93078 13.8849C7.93078 13.7315 7.87484 13.5834 7.77344 13.4684C7.67204 13.3533 7.53215 13.2792 7.38 13.2599H6.13Z" fill="#666666"/>
<path d="M8 17.6399C8.00133 17.5576 7.98627 17.4759 7.95571 17.3995C7.92514 17.3232 7.87968 17.2536 7.82198 17.195C7.76427 17.1364 7.69548 17.0898 7.6196 17.058C7.54371 17.0262 7.46227 17.0099 7.38 17.0099H6.13C6.04129 16.9986 5.9512 17.0064 5.86572 17.0327C5.78025 17.0589 5.70134 17.1031 5.63425 17.1622C5.56717 17.2213 5.51343 17.2941 5.47663 17.3756C5.43982 17.4571 5.42078 17.5455 5.42078 17.6349C5.42078 17.7243 5.43982 17.8127 5.47663 17.8942C5.51343 17.9757 5.56717 18.0484 5.63425 18.1075C5.70134 18.1667 5.78025 18.2108 5.86572 18.2371C5.9512 18.2634 6.04129 18.2711 6.13 18.2599H7.38C7.54443 18.2599 7.70213 18.1946 7.8184 18.0783C7.93468 17.962 8 17.8043 8 17.6399Z" fill="#666666"/>
<path d="M14.26 18.28H13C12.8479 18.2993 12.708 18.3734 12.6066 18.4885C12.5052 18.6036 12.4492 18.7517 12.4492 18.905C12.4492 19.0584 12.5052 19.2065 12.6066 19.3216C12.708 19.4366 12.8479 19.5107 13 19.53H14.26C14.4122 19.5107 14.552 19.4366 14.6534 19.3216C14.7548 19.2065 14.8108 19.0584 14.8108 18.905C14.8108 18.7517 14.7548 18.6036 14.6534 18.4885C14.552 18.3734 14.4122 18.2993 14.26 18.28Z" fill="#666666"/>
<path d="M18 18.2799H16.76C16.6713 18.2687 16.5812 18.2764 16.4957 18.3027C16.4102 18.329 16.3313 18.3731 16.2643 18.4322C16.1972 18.4914 16.1434 18.5641 16.1066 18.6456C16.0698 18.7271 16.0508 18.8155 16.0508 18.9049C16.0508 18.9943 16.0698 19.0827 16.1066 19.1642C16.1434 19.2457 16.1972 19.3184 16.2643 19.3776C16.3313 19.4367 16.4102 19.4808 16.4957 19.5071C16.5812 19.5334 16.6713 19.5411 16.76 19.5299H18C18.0887 19.5411 18.1788 19.5334 18.2643 19.5071C18.3498 19.4808 18.4287 19.4367 18.4957 19.3776C18.5628 19.3184 18.6166 19.2457 18.6534 19.1642C18.6902 19.0827 18.7092 18.9943 18.7092 18.9049C18.7092 18.8155 18.6902 18.7271 18.6534 18.6456C18.6166 18.5641 18.5628 18.4914 18.4957 18.4322C18.4287 18.3731 18.3498 18.329 18.2643 18.3027C18.1788 18.2764 18.0887 18.2687 18 18.2799Z" fill="#666666"/>
<path d="M14.26 15.78H13C12.8479 15.7993 12.708 15.8734 12.6066 15.9885C12.5052 16.1036 12.4492 16.2517 12.4492 16.405C12.4492 16.5584 12.5052 16.7065 12.6066 16.8216C12.708 16.9366 12.8479 17.0107 13 17.03H14.26C14.4122 17.0107 14.552 16.9366 14.6534 16.8216C14.7548 16.7065 14.8108 16.5584 14.8108 16.405C14.8108 16.2517 14.7548 16.1036 14.6534 15.9885C14.552 15.8734 14.4122 15.7993 14.26 15.78Z" fill="#666666"/>
<path d="M18 15.7799H16.76C16.6713 15.7687 16.5812 15.7764 16.4957 15.8027C16.4102 15.829 16.3313 15.8731 16.2643 15.9322C16.1972 15.9914 16.1434 16.0641 16.1066 16.1456C16.0698 16.2271 16.0508 16.3155 16.0508 16.4049C16.0508 16.4943 16.0698 16.5827 16.1066 16.6642C16.1434 16.7457 16.1972 16.8184 16.2643 16.8776C16.3313 16.9367 16.4102 16.9808 16.4957 17.0071C16.5812 17.0334 16.6713 17.0411 16.76 17.0299H18C18.0887 17.0411 18.1788 17.0334 18.2643 17.0071C18.3498 16.9808 18.4287 16.9367 18.4957 16.8776C18.5628 16.8184 18.6166 16.7457 18.6534 16.6642C18.6902 16.5827 18.7092 16.4943 18.7092 16.4049C18.7092 16.3155 18.6902 16.2271 18.6534 16.1456C18.6166 16.0641 18.5628 15.9914 18.4957 15.9322C18.4287 15.8731 18.3498 15.829 18.2643 15.8027C18.1788 15.7764 18.0887 15.7687 18 15.7799Z" fill="#666666"/>
</svg>
