<svg width="21" height="19" viewBox="0 0 21 19" fill="none" xmlns="http://www.w3.org/2000/svg">
<path fill-rule="evenodd" clip-rule="evenodd" d="M10.5577 1.29722C10.6336 1.26579 10.7149 1.24962 10.7969 1.24962C10.879 1.24962 10.9603 1.26579 11.0361 1.29722C11.112 1.32864 11.1809 1.3747 11.2389 1.43276L11.239 1.4329L19.7273 9.92115C19.9713 10.1651 20.3669 10.1651 20.6109 9.92115C20.8549 9.67714 20.8549 9.28154 20.6109 9.03753L12.1228 0.549432C11.9487 0.375248 11.742 0.237071 11.5145 0.142797C11.287 0.0485233 11.0432 0 10.7969 0C10.5507 0 10.3068 0.0485233 10.0793 0.142797C9.85185 0.237071 9.64516 0.375248 9.47109 0.549432L0.98299 9.03753C0.738987 9.28154 0.738987 9.67714 0.98299 9.92115C1.22699 10.1651 1.6226 10.1651 1.8666 9.92115L10.3548 1.4329L10.355 1.43276C10.413 1.3747 10.4819 1.32864 10.5577 1.29722ZM4.54884 10.7289C4.54884 10.3839 4.26911 10.1041 3.92403 10.1041C3.57896 10.1041 3.29922 10.3839 3.29922 10.7289V17.6018C3.29922 17.9469 3.57896 18.2267 3.92403 18.2267H8.92251C9.26758 18.2267 9.54732 17.9469 9.54732 17.6018V12.6034C9.54732 12.4377 9.61315 12.2787 9.73032 12.1616C9.84749 12.0444 10.0064 11.9786 10.1721 11.9786H11.4217C11.5875 11.9786 11.7464 12.0444 11.8636 12.1616C11.9807 12.2787 12.0466 12.4377 12.0466 12.6034V17.6018C12.0466 17.9469 12.3263 18.2267 12.6714 18.2267H17.6698C18.0149 18.2267 18.2946 17.9469 18.2946 17.6018V10.7289C18.2946 10.3839 18.0149 10.1041 17.6698 10.1041C17.3248 10.1041 17.045 10.3839 17.045 10.7289V16.977H13.2962V12.6034C13.2962 12.1062 13.0987 11.6295 12.7472 11.278C12.3956 10.9264 11.9189 10.7289 11.4217 10.7289H10.1721C9.675 10.7289 9.19823 10.9264 8.84671 11.278C8.49518 11.6295 8.2977 12.1062 8.2977 12.6034V16.977H4.54884V10.7289Z" fill="#666666"/>
</svg>
