<svg width="25" height="24" viewBox="0 0 25 24" fill="none" xmlns="http://www.w3.org/2000/svg">
<path d="M12.55 12C11.5611 12 10.5944 11.7068 9.77214 11.1573C8.94989 10.6079 8.30903 9.82705 7.93059 8.91342C7.55215 7.99979 7.45314 6.99446 7.64606 6.02455C7.83899 5.05465 8.31519 4.16373 9.01446 3.46447C9.71372 2.76521 10.6046 2.289 11.5745 2.09608C12.5444 1.90315 13.5498 2.00217 14.4634 2.3806C15.377 2.75904 16.1579 3.39991 16.7073 4.22215C17.2567 5.0444 17.55 6.0111 17.55 7C17.55 8.32609 17.0232 9.59785 16.0855 10.5355C15.1478 11.4732 13.8761 12 12.55 12ZM12.55 3.25C11.8083 3.25 11.0833 3.46994 10.4666 3.88199C9.84992 4.29405 9.36927 4.87972 9.08544 5.56494C8.80161 6.25016 8.72735 7.00416 8.87205 7.73159C9.01674 8.45902 9.37389 9.12721 9.89834 9.65165C10.4228 10.1761 11.091 10.5333 11.8184 10.6779C12.5458 10.8226 13.2998 10.7484 13.9851 10.4646C14.6703 10.1807 15.2559 9.70008 15.668 9.08339C16.0801 8.46671 16.3 7.74168 16.3 7C16.3 6.00544 15.9049 5.05161 15.2016 4.34835C14.4984 3.64509 13.5446 3.25 12.55 3.25Z" fill="#D83731"/>
<path d="M20.67 21.9999C20.5886 21.9999 20.5079 21.9838 20.4327 21.9527C20.3575 21.9215 20.2892 21.8759 20.2316 21.8183C20.174 21.7607 20.1283 21.6924 20.0972 21.6171C20.066 21.5419 20.05 21.4613 20.05 21.3799C20.05 19.3908 19.2598 17.4831 17.8533 16.0766C16.4468 14.6701 14.5391 13.8799 12.55 13.8799C10.5609 13.8799 8.65321 14.6701 7.24669 16.0766C5.84016 17.4831 5.04999 19.3908 5.04999 21.3799C5.0307 21.532 4.95658 21.6719 4.84152 21.7733C4.72645 21.8747 4.57835 21.9307 4.42499 21.9307C4.27162 21.9307 4.12352 21.8747 4.00846 21.7733C3.89339 21.6719 3.81927 21.532 3.79999 21.3799C3.79999 19.0592 4.72186 16.8336 6.3628 15.1927C8.00375 13.5518 10.2293 12.6299 12.55 12.6299C14.8706 12.6299 17.0962 13.5518 18.7372 15.1927C20.3781 16.8336 21.3 19.0592 21.3 21.3799C21.2974 21.5452 21.2298 21.7029 21.112 21.8189C20.9941 21.9349 20.8354 21.9999 20.67 21.9999Z" fill="#D83731"/>
</svg>
