<svg width="24" height="24" viewBox="0 0 24 24" fill="none" xmlns="http://www.w3.org/2000/svg">
<path d="M6.58922 7.31501C6.40289 7.31699 6.22018 7.26355 6.06429 7.16147C5.9084 7.0594 5.78636 6.91329 5.71368 6.74171C5.641 6.57013 5.62095 6.38082 5.65608 6.19783C5.69121 6.01483 5.77994 5.84641 5.911 5.71394C6.04205 5.58148 6.20952 5.49095 6.39213 5.45387C6.57474 5.41678 6.76425 5.4348 6.9366 5.50564C7.10894 5.57649 7.25634 5.69695 7.36008 5.85175C7.46382 6.00654 7.51921 6.18867 7.51922 6.37501C7.51924 6.62259 7.42157 6.86018 7.24745 7.03618C7.07332 7.21218 6.83679 7.31237 6.58922 7.31501ZM6.58922 6.06501C6.52512 6.06303 6.46191 6.08036 6.40778 6.11475C6.35365 6.14914 6.3111 6.199 6.28565 6.25786C6.2602 6.31672 6.25302 6.38187 6.26505 6.44487C6.27708 6.50786 6.30775 6.56578 6.3531 6.61113C6.39845 6.65647 6.45637 6.68715 6.51936 6.69918C6.58235 6.7112 6.6475 6.70403 6.70637 6.67858C6.76523 6.65313 6.81509 6.61058 6.84948 6.55645C6.88386 6.50232 6.9012 6.4391 6.89922 6.37501C6.89922 6.29279 6.86656 6.21394 6.80842 6.1558C6.75029 6.09767 6.67144 6.06501 6.58922 6.06501Z" fill="#666666"/>
<path d="M6.58923 14.815C6.40248 14.817 6.21937 14.7633 6.06327 14.6608C5.90716 14.5582 5.78513 14.4115 5.71275 14.2394C5.64037 14.0672 5.62091 13.8774 5.65686 13.6941C5.69281 13.5108 5.78254 13.3424 5.9146 13.2104C6.04666 13.0783 6.21507 12.9886 6.39834 12.9526C6.58161 12.9167 6.77143 12.9361 6.9436 13.0085C7.11576 13.0809 7.26246 13.2029 7.36498 13.359C7.46751 13.5151 7.52121 13.6983 7.51923 13.885C7.51663 14.1309 7.41781 14.3659 7.24396 14.5397C7.07011 14.7136 6.83507 14.8124 6.58923 14.815ZM6.58923 13.565C6.54317 13.5568 6.49586 13.5587 6.45063 13.5708C6.40541 13.5828 6.36338 13.6046 6.32749 13.6346C6.29161 13.6647 6.26275 13.7022 6.24295 13.7446C6.22315 13.787 6.21288 13.8332 6.21288 13.88C6.21288 13.9268 6.22315 13.973 6.24295 14.0154C6.26275 14.0578 6.29161 14.0954 6.32749 14.1254C6.36338 14.1554 6.40541 14.1772 6.45063 14.1893C6.49586 14.2013 6.54317 14.2032 6.58923 14.195C6.66315 14.1818 6.73007 14.143 6.77827 14.0854C6.82647 14.0278 6.85288 13.9551 6.85288 13.88C6.85288 13.8049 6.82647 13.7322 6.77827 13.6746C6.73007 13.617 6.66315 13.5782 6.58923 13.565Z" fill="#666666"/>
<path d="M16.5892 10.755H6.58922C5.9971 10.7833 5.40538 10.6911 4.84992 10.4841C4.29446 10.277 3.78682 9.95928 3.35775 9.55024C2.92868 9.14119 2.5871 8.64931 2.35372 8.10438C2.12034 7.55944 2 6.97281 2 6.38C2 5.78719 2.12034 5.20056 2.35372 4.65562C2.5871 4.11069 2.92868 3.61881 3.35775 3.20976C3.78682 2.80072 4.29446 2.48303 4.84992 2.27595C5.40538 2.06886 5.9971 1.97668 6.58922 2.005H16.5892C17.7134 2.05876 18.7737 2.54317 19.5502 3.35775C20.3268 4.17233 20.76 5.25457 20.76 6.38C20.76 7.50543 20.3268 8.58767 19.5502 9.40225C18.7737 10.2168 17.7134 10.7012 16.5892 10.755ZM6.58922 3.255C6.16397 3.23093 5.73829 3.29392 5.33822 3.44009C4.93816 3.58626 4.57214 3.81254 4.26257 4.10509C3.953 4.39764 3.70639 4.75029 3.53785 5.14145C3.36931 5.53262 3.28238 5.95407 3.28238 6.38C3.28238 6.80593 3.36931 7.22738 3.53785 7.61855C3.70639 8.00971 3.953 8.36236 4.26257 8.65491C4.57214 8.94746 4.93816 9.17374 5.33822 9.31991C5.73829 9.46608 6.16397 9.52907 6.58922 9.505H16.5892C17.3875 9.45983 18.1382 9.1109 18.6873 8.52981C19.2364 7.94872 19.5424 7.17951 19.5424 6.38C19.5424 5.58049 19.2364 4.81128 18.6873 4.23019C18.1382 3.6491 17.3875 3.30017 16.5892 3.255H6.58922Z" fill="#666666"/>
<path d="M9.70922 18.255H6.58922C5.9971 18.2833 5.40538 18.1911 4.84992 17.9841C4.29446 17.777 3.78682 17.4593 3.35775 17.0502C2.92868 16.6412 2.5871 16.1493 2.35372 15.6044C2.12034 15.0594 2 14.4728 2 13.88C2 13.2872 2.12034 12.7006 2.35372 12.1556C2.5871 11.6107 2.92868 11.1188 3.35775 10.7098C3.78682 10.3007 4.29446 9.98303 4.84992 9.77595C5.40538 9.56886 5.9971 9.47668 6.58922 9.505H16.5892C16.7414 9.52428 16.8813 9.59841 16.9827 9.71347C17.0841 9.82853 17.14 9.97663 17.14 10.13C17.14 10.2834 17.0841 10.4315 16.9827 10.5465C16.8813 10.6616 16.7414 10.7357 16.5892 10.755H6.58922C6.16397 10.7309 5.73829 10.7939 5.33822 10.9401C4.93816 11.0863 4.57214 11.3125 4.26257 11.6051C3.953 11.8976 3.70639 12.2503 3.53785 12.6415C3.36931 13.0326 3.28238 13.4541 3.28238 13.88C3.28238 14.3059 3.36931 14.7274 3.53785 15.1185C3.70639 15.5097 3.953 15.8624 4.26257 16.1549C4.57214 16.4475 4.93816 16.6737 5.33822 16.8199C5.73829 16.9661 6.16397 17.0291 6.58922 17.005H9.70922C9.86137 17.0243 10.0013 17.0984 10.1027 17.2135C10.2041 17.3285 10.26 17.4766 10.26 17.63C10.26 17.7834 10.2041 17.9315 10.1027 18.0465C10.0013 18.1616 9.86137 18.2357 9.70922 18.255Z" fill="#666666"/>
<path d="M16.5892 7.005H10.9592C10.8705 7.01624 10.7804 7.00847 10.695 6.98221C10.6095 6.95594 10.5306 6.91178 10.4635 6.85265C10.3964 6.79353 10.3427 6.72081 10.3059 6.63931C10.2691 6.55782 10.25 6.46942 10.25 6.38C10.25 6.29058 10.2691 6.20218 10.3059 6.12069C10.3427 6.03919 10.3964 5.96647 10.4635 5.90734C10.5306 5.84822 10.6095 5.80406 10.695 5.77779C10.7804 5.75153 10.8705 5.74376 10.9592 5.755H16.5892C16.7414 5.77428 16.8813 5.84841 16.9827 5.96347C17.0841 6.07853 17.14 6.22663 17.14 6.38C17.14 6.53337 17.0841 6.68147 16.9827 6.79653C16.8813 6.91159 16.7414 6.98572 16.5892 7.005Z" fill="#666666"/>
<path d="M16.5892 22.0049C16.417 22.004 16.2519 21.9358 16.1292 21.8149L11.8692 17.3649C11.3708 16.8297 11.0742 16.1378 11.0301 15.4079C10.986 14.6779 11.1973 13.9553 11.6277 13.3641C12.0581 12.7729 12.6809 12.3498 13.3891 12.1675C14.0973 11.9852 14.8468 12.055 15.5092 12.3649C15.8139 12.5138 16.0912 12.7133 16.3292 12.9549L16.5892 13.2149L16.8392 12.9549C17.1276 12.657 17.4724 12.4195 17.8536 12.2564C18.2348 12.0933 18.6446 12.0078 19.0592 12.0049C19.6809 12.0058 20.2885 12.1907 20.8053 12.5363C21.3222 12.8818 21.7252 13.3726 21.9636 13.9468C22.2021 14.521 22.2653 15.1529 22.1452 15.7629C22.0252 16.3729 21.7274 16.9338 21.2892 17.3749L17.0392 21.8149C16.9202 21.9352 16.7585 22.0035 16.5892 22.0049ZM14.1092 13.2549C13.7345 13.2563 13.3685 13.3684 13.0573 13.5773C12.7461 13.7862 12.5037 14.0824 12.3604 14.4287C12.2172 14.775 12.1796 15.156 12.2523 15.5236C12.3251 15.8913 12.5049 16.2292 12.7692 16.4949L16.5892 20.4949L20.3992 16.4949C20.682 16.212 20.8689 15.8476 20.9335 15.4529C20.9981 15.0581 20.9371 14.6531 20.7592 14.2949C20.6693 14.1115 20.5474 13.9455 20.3992 13.8049C20.2249 13.6264 20.0164 13.4849 19.7861 13.3887C19.5559 13.2925 19.3087 13.2436 19.0592 13.2449C18.81 13.2453 18.5633 13.2949 18.3333 13.391C18.1033 13.4871 17.8946 13.6278 17.7192 13.8049L17.0292 14.4949C16.9111 14.6127 16.7511 14.6789 16.5842 14.6789C16.4174 14.6789 16.2573 14.6127 16.1392 14.4949L15.4492 13.8049C15.2752 13.626 15.0668 13.4841 14.8365 13.3879C14.6062 13.2917 14.3588 13.243 14.1092 13.2449V13.2549Z" fill="#666666"/>
</svg>
