<svg width="20" height="20" viewBox="0 0 20 20" fill="none" xmlns="http://www.w3.org/2000/svg">
<path fill-rule="evenodd" clip-rule="evenodd" d="M1.875 1.25C1.70924 1.25 1.55027 1.31585 1.43306 1.43306C1.31585 1.55027 1.25 1.70924 1.25 1.875V14.375C1.25 14.5408 1.31585 14.6997 1.43306 14.8169C1.55027 14.9341 1.70924 15 1.875 15H4.375C4.72018 15 5 15.2798 5 15.625V18.125L9 15.125C9.10818 15.0439 9.23977 15 9.375 15H18.125C18.2908 15 18.4497 14.9341 18.5669 14.8169C18.6841 14.6997 18.75 14.5408 18.75 14.375V1.875C18.75 1.70924 18.6841 1.55027 18.5669 1.43306C18.4497 1.31585 18.2908 1.25 18.125 1.25H1.875ZM0.549175 0.549175C0.900805 0.197544 1.37772 0 1.875 0H18.125C18.6223 0 19.0992 0.197544 19.4508 0.549175C19.8025 0.900805 20 1.37772 20 1.875V14.375C20 14.8723 19.8025 15.3492 19.4508 15.7008C19.0992 16.0524 18.6223 16.25 18.125 16.25H9.58333L4.75 19.875C4.56061 20.017 4.30723 20.0399 4.09549 19.934C3.88375 19.8281 3.75 19.6117 3.75 19.375V16.25H1.875C1.37772 16.25 0.900805 16.0524 0.549175 15.7008C0.197544 15.3492 0 14.8723 0 14.375V1.875C0 1.37772 0.197544 0.900805 0.549175 0.549175ZM3.75 6.25C3.75 5.90482 4.02982 5.625 4.375 5.625H15.625C15.9702 5.625 16.25 5.90482 16.25 6.25C16.25 6.59518 15.9702 6.875 15.625 6.875H4.375C4.02982 6.875 3.75 6.59518 3.75 6.25ZM4.375 9.375C4.02982 9.375 3.75 9.65482 3.75 10C3.75 10.3452 4.02982 10.625 4.375 10.625H13.125C13.4702 10.625 13.75 10.3452 13.75 10C13.75 9.65482 13.4702 9.375 13.125 9.375H4.375Z" fill="#666666"/>
</svg>
