<svg width="24" height="24" viewBox="0 0 24 24" fill="none" xmlns="http://www.w3.org/2000/svg">
<path d="M11.75 12C10.7611 12 9.7944 11.7068 8.97215 11.1573C8.14991 10.6079 7.50904 9.82705 7.1306 8.91342C6.75217 7.99979 6.65315 6.99446 6.84608 6.02455C7.039 5.05465 7.51521 4.16373 8.21447 3.46447C8.91373 2.76521 9.80465 2.289 10.7746 2.09608C11.7445 1.90315 12.7498 2.00217 13.6634 2.3806C14.577 2.75904 15.3579 3.39991 15.9073 4.22215C16.4568 5.0444 16.75 6.0111 16.75 7C16.75 8.32609 16.2232 9.59785 15.2855 10.5355C14.3479 11.4732 13.0761 12 11.75 12ZM11.75 3.25C11.0083 3.25 10.2833 3.46994 9.66661 3.88199C9.04993 4.29405 8.56928 4.87972 8.28545 5.56494C8.00163 6.25016 7.92736 7.00416 8.07206 7.73159C8.21675 8.45902 8.5739 9.12721 9.09835 9.65165C9.6228 10.1761 10.291 10.5333 11.0184 10.6779C11.7458 10.8226 12.4998 10.7484 13.1851 10.4646C13.8703 10.1807 14.456 9.70008 14.868 9.08339C15.2801 8.46671 15.5 7.74168 15.5 7C15.5 6.00544 15.1049 5.05161 14.4017 4.34835C13.6984 3.64509 12.7446 3.25 11.75 3.25Z" fill="#666666"/>
<path d="M19.87 22C19.7886 22 19.708 21.984 19.6327 21.9528C19.5575 21.9217 19.4892 21.876 19.4316 21.8184C19.374 21.7608 19.3284 21.6925 19.2972 21.6173C19.266 21.542 19.25 21.4614 19.25 21.38C19.25 19.3909 18.4598 17.4832 17.0533 16.0767C15.6468 14.6702 13.7391 13.88 11.75 13.88C9.76088 13.88 7.85322 14.6702 6.4467 16.0767C5.04018 17.4832 4.25 19.3909 4.25 21.38C4.23072 21.5322 4.15659 21.672 4.04153 21.7734C3.92647 21.8748 3.77837 21.9308 3.625 21.9308C3.47163 21.9308 3.32353 21.8748 3.20847 21.7734C3.09341 21.672 3.01928 21.5322 3 21.38C3 19.0594 3.92187 16.8338 5.56282 15.1928C7.20376 13.5519 9.42936 12.63 11.75 12.63C14.0706 12.63 16.2962 13.5519 17.9372 15.1928C19.5781 16.8338 20.5 19.0594 20.5 21.38C20.4974 21.5454 20.4298 21.703 20.312 21.819C20.1941 21.935 20.0354 22 19.87 22Z" fill="#666666"/>
</svg>
