<svg width="161" height="176" viewBox="0 0 161 176" fill="none" xmlns="http://www.w3.org/2000/svg">
<path fill-rule="evenodd" clip-rule="evenodd" d="M80.5 174.201C123.965 174.201 159.201 138.965 159.201 95.5C159.201 52.0346 123.965 16.7989 80.5 16.7989C37.0346 16.7989 1.79888 52.0346 1.79888 95.5C1.79888 138.965 37.0346 174.201 80.5 174.201ZM80.5 176C124.959 176 161 139.959 161 95.5C161 51.0411 124.959 15 80.5 15C36.0411 15 0 51.0411 0 95.5C0 139.959 36.0411 176 80.5 176Z" fill="url(#paint0_linear_397_4937)"/>
<path d="M59 0H103V38H59V0Z" fill="#F7F7F7"/>
<path fill-rule="evenodd" clip-rule="evenodd" d="M72.5891 32.832C71.9807 32.832 71.266 33.4539 71.266 34.5155V37.1011C71.266 38.1628 71.9807 38.7847 72.5891 38.7847H88.1664C88.7748 38.7847 89.4896 38.1628 89.4896 37.1011V34.5155C89.4896 33.4539 88.7748 32.832 88.1664 32.832H72.5891ZM69.4617 34.5155C69.4617 32.7212 70.7395 31.0278 72.5891 31.0278H88.1664C90.016 31.0278 91.2939 32.7212 91.2939 34.5155V37.1011C91.2939 38.8955 90.016 40.5888 88.1664 40.5888H72.5891C70.7395 40.5888 69.4617 38.8955 69.4617 37.1011V34.5155Z" fill="url(#paint1_linear_397_4937)"/>
<path fill-rule="evenodd" clip-rule="evenodd" d="M63.4486 0.830876C63.8883 0.319972 64.5164 0.000732422 65.2056 0.000732422H74.8145C75.3128 0.000732422 75.7167 0.404605 75.7167 0.902806C75.7167 1.40101 75.3128 1.80488 74.8145 1.80488H65.2056C65.0898 1.80488 64.9458 1.85721 64.8162 2.0077C64.6831 2.16241 64.5901 2.39765 64.5901 2.66619C64.5901 7.61015 66.2816 12.3293 69.2601 15.79C72.235 19.2466 76.2381 21.1562 80.3778 21.1562C84.5175 21.1562 88.5207 19.2466 91.4956 15.79C94.4741 12.3293 96.1656 7.61015 96.1656 2.66619C96.1656 2.39765 96.0726 2.16241 95.9394 2.0077C95.8099 1.85721 95.6659 1.80488 95.5501 1.80488H85.9411C85.4429 1.80488 85.039 1.40101 85.039 0.902806C85.039 0.404605 85.4429 0.000732422 85.9411 0.000732422H95.5501C96.2393 0.000732422 96.8673 0.31997 97.307 0.830876C97.7431 1.33757 97.9699 1.99938 97.9699 2.66619C97.9699 8.00843 96.1446 13.1542 92.8632 16.9669C89.5781 20.7838 85.091 22.9603 80.3778 22.9603C75.6647 22.9603 71.1775 20.7838 67.8925 16.9669C64.611 13.1542 62.7858 8.00843 62.7858 2.66619C62.7858 1.99938 63.0125 1.33756 63.4486 0.830876Z" fill="url(#paint2_linear_397_4937)"/>
<path fill-rule="evenodd" clip-rule="evenodd" d="M77.4569 20.8398C77.9399 20.9621 78.2324 21.4527 78.1101 21.9357L75.8087 31.0271H84.6439L82.5589 21.9331C82.4476 21.4475 82.751 20.9636 83.2367 20.8523C83.7223 20.7409 84.2063 21.0444 84.3176 21.53L86.6557 31.7276C86.7171 31.9953 86.6531 32.2764 86.4819 32.4913C86.3108 32.7061 86.051 32.8313 85.7763 32.8313H74.6497C74.3715 32.8313 74.1088 32.7029 73.9378 32.4833C73.7669 32.2637 73.7069 31.9776 73.7751 31.7078L76.361 21.4929C76.4832 21.01 76.9739 20.7176 77.4569 20.8398Z" fill="url(#paint3_linear_397_4937)"/>
<path fill-rule="evenodd" clip-rule="evenodd" d="M80.4996 1.86933L78.4646 5.94255C78.3036 6.26484 77.9398 6.47311 77.538 6.47311H74.0478C74.0447 6.47848 74.0414 6.48501 74.0382 6.49285C74.0236 6.52811 74.0182 6.57314 74.027 6.61759C74.0359 6.66213 74.055 6.6868 74.0623 6.69411L74.0649 6.69671L77.3131 9.94793C77.558 10.1931 77.6294 10.5363 77.4988 10.8413L75.7029 15.0365C75.688 15.075 75.6836 15.1228 75.6941 15.169C75.695 15.1726 75.6959 15.1761 75.6968 15.1795L79.9428 12.7469C80.2792 12.5541 80.7142 12.5541 81.0506 12.7469L85.2988 15.1807C85.2997 15.1774 85.3006 15.1738 85.3015 15.1702C85.312 15.1238 85.3075 15.0757 85.2925 15.0372L83.4963 10.8413C83.3655 10.5358 83.4373 10.1921 83.683 9.94691L86.9361 6.70077L86.9377 6.69922C86.945 6.6919 86.9641 6.66727 86.973 6.62279C86.9818 6.57838 86.9764 6.53338 86.9619 6.4981C86.9586 6.49018 86.9553 6.48359 86.9521 6.47819H83.4621C83.0601 6.47819 82.6963 6.26981 82.5353 5.94739L80.4996 1.86933ZM81.3865 1.43504L82.3109 1.07598C82.1596 0.777479 81.9215 0.508928 81.6058 0.312615C81.2882 0.115057 80.9073 0.00115949 80.5057 8.80085e-06C80.104 -0.00114189 79.7222 0.110594 79.403 0.306593C79.0858 0.501346 78.846 0.768859 78.6929 1.06676L76.8764 4.70263H74.0124C73.583 4.6962 73.1759 4.82079 72.8441 5.03981C72.5111 5.25965 72.272 5.56131 72.1359 5.89103C71.9997 6.22067 71.9659 6.5782 72.0343 6.92164C72.1026 7.26433 72.2732 7.59434 72.5433 7.86322C72.5438 7.86374 72.5443 7.86427 72.5449 7.86479L75.3926 10.7153L73.8051 14.4236L73.8001 14.4357C73.6586 14.7815 73.6288 15.1575 73.7106 15.5159C73.7924 15.8743 73.9866 16.2165 74.2886 16.486C74.5927 16.7573 74.9952 16.9433 75.4469 16.9883C75.8977 17.0331 76.3394 16.9315 76.7059 16.7174L80.4967 14.5456L84.2865 16.7168C84.6526 16.9316 85.0942 17.0341 85.5453 16.9899C85.9978 16.9456 86.4013 16.7597 86.7061 16.4881C87.0089 16.2183 87.2033 15.8755 87.2851 15.5165C87.3669 15.1574 87.3368 14.7809 87.1946 14.4347L85.6028 10.7161L88.4552 7.86983C88.4555 7.86949 88.4559 7.86916 88.4562 7.86882C88.7264 7.60003 88.8972 7.2701 88.9655 6.92744C89.034 6.58428 89.0004 6.22702 88.8647 5.89755C88.729 5.568 88.4904 5.2664 88.158 5.04635C87.8266 4.82693 87.4197 4.7018 86.9901 4.7077H84.1239L82.3132 1.0806L81.3865 1.43504Z" fill="url(#paint4_linear_397_4937)"/>
<path d="M13.3027 174.5C13.1528 174.5 13.0028 174.462 12.8654 174.394L8.99776 172.482L5.13014 174.394C4.89896 174.512 4.63654 174.531 4.38661 174.45C4.13668 174.369 3.93674 174.194 3.81803 173.963C3.71181 173.75 3.68681 173.507 3.7493 173.275L4.90521 169.077L1.78737 165.99C1.40623 165.615 1.40623 164.997 1.78112 164.615C1.94358 164.44 2.16226 164.34 2.39344 164.322L6.15484 163.947L8.12926 160.035C8.37919 159.554 8.96652 159.361 9.44762 159.604C9.62882 159.698 9.77878 159.848 9.8725 160.029L11.8469 163.941L15.6146 164.315C15.8645 164.334 16.1019 164.459 16.2706 164.653C16.4393 164.853 16.5206 165.103 16.4956 165.359C16.4768 165.59 16.3768 165.803 16.2081 165.971L13.0903 169.058L14.2462 173.25C14.3837 173.775 14.0713 174.313 13.5527 174.45C13.4714 174.487 13.3902 174.5 13.3027 174.5ZM8.99776 171.488C9.06649 171.488 9.14146 171.507 9.20395 171.538L13.284 173.557L12.1156 169.058C12.0719 168.895 12.1156 168.72 12.2343 168.602L15.5458 165.321L11.497 164.859C11.3346 164.84 11.1971 164.747 11.1221 164.603L9.03525 160.46C9.029 160.454 9.02275 160.448 9.0165 160.442L6.87338 164.603C6.7984 164.747 6.66094 164.84 6.49849 164.859L2.47467 165.259L5.76121 168.602C5.87992 168.72 5.92991 168.895 5.88617 169.058L4.65528 173.519L8.79157 171.538C8.85405 171.507 8.92278 171.488 8.99776 171.488Z" fill="url(#paint5_linear_397_4937)"/>
<defs>
<linearGradient id="paint0_linear_397_4937" x1="161" y1="58.5135" x2="-9.99339" y2="99.7372" gradientUnits="userSpaceOnUse">
<stop stop-color="#ED3957"/>
<stop offset="1" stop-color="#F8524B"/>
</linearGradient>
<linearGradient id="paint1_linear_397_4937" x1="91.2939" y1="33.6119" x2="72.4651" y2="43.9773" gradientUnits="userSpaceOnUse">
<stop stop-color="#ED3957"/>
<stop offset="1" stop-color="#F8524B"/>
</linearGradient>
<linearGradient id="paint2_linear_397_4937" x1="97.9699" y1="6.20603" x2="63.1786" y2="19.0595" gradientUnits="userSpaceOnUse">
<stop stop-color="#ED3957"/>
<stop offset="1" stop-color="#F8524B"/>
</linearGradient>
<linearGradient id="paint3_linear_397_4937" x1="86.6785" y1="24.0605" x2="73.0627" y2="27.592" gradientUnits="userSpaceOnUse">
<stop stop-color="#ED3957"/>
<stop offset="1" stop-color="#F8524B"/>
</linearGradient>
<linearGradient id="paint4_linear_397_4937" x1="89" y1="4.5946" x2="70.9448" y2="8.94741" gradientUnits="userSpaceOnUse">
<stop stop-color="#ED3957"/>
<stop offset="1" stop-color="#F8524B"/>
</linearGradient>
<linearGradient id="paint5_linear_397_4937" x1="16.5" y1="163.553" x2="0.56952" y2="167.393" gradientUnits="userSpaceOnUse">
<stop stop-color="#ED3957"/>
<stop offset="1" stop-color="#F8524B"/>
</linearGradient>
</defs>
</svg>
