<svg width="161" height="176" viewBox="0 0 161 176" fill="none" xmlns="http://www.w3.org/2000/svg">
<path fill-rule="evenodd" clip-rule="evenodd" d="M80.5 174.201C123.965 174.201 159.201 138.965 159.201 95.5C159.201 52.0346 123.965 16.7989 80.5 16.7989C37.0346 16.7989 1.79888 52.0346 1.79888 95.5C1.79888 138.965 37.0346 174.201 80.5 174.201ZM80.5 176C124.959 176 161 139.959 161 95.5C161 51.0411 124.959 15 80.5 15C36.0411 15 0 51.0411 0 95.5C0 139.959 36.0411 176 80.5 176Z" fill="url(#paint0_linear_397_4936)"/>
<path d="M59 0H103V38H59V0Z" fill="#F7F7F7"/>
<path fill-rule="evenodd" clip-rule="evenodd" d="M72.5891 32.832C71.9807 32.832 71.266 33.4539 71.266 34.5155V37.1011C71.266 38.1628 71.9807 38.7847 72.5891 38.7847H88.1664C88.7748 38.7847 89.4896 38.1628 89.4896 37.1011V34.5155C89.4896 33.4539 88.7748 32.832 88.1664 32.832H72.5891ZM69.4617 34.5155C69.4617 32.7212 70.7395 31.0278 72.5891 31.0278H88.1664C90.016 31.0278 91.2939 32.7212 91.2939 34.5155V37.1011C91.2939 38.8955 90.016 40.5888 88.1664 40.5888H72.5891C70.7395 40.5888 69.4617 38.8955 69.4617 37.1011V34.5155Z" fill="url(#paint1_linear_397_4936)"/>
<path fill-rule="evenodd" clip-rule="evenodd" d="M63.4486 0.830876C63.8883 0.319972 64.5164 0.000732422 65.2056 0.000732422H74.8145C75.3128 0.000732422 75.7167 0.404605 75.7167 0.902806C75.7167 1.40101 75.3128 1.80488 74.8145 1.80488H65.2056C65.0898 1.80488 64.9458 1.85721 64.8162 2.0077C64.6831 2.16241 64.5901 2.39765 64.5901 2.66619C64.5901 7.61015 66.2816 12.3293 69.2601 15.79C72.235 19.2466 76.2381 21.1562 80.3778 21.1562C84.5175 21.1562 88.5207 19.2466 91.4956 15.79C94.4741 12.3293 96.1656 7.61015 96.1656 2.66619C96.1656 2.39765 96.0726 2.16241 95.9394 2.0077C95.8099 1.85721 95.6659 1.80488 95.5501 1.80488H85.9411C85.4429 1.80488 85.039 1.40101 85.039 0.902806C85.039 0.404605 85.4429 0.000732422 85.9411 0.000732422H95.5501C96.2393 0.000732422 96.8673 0.31997 97.307 0.830876C97.7431 1.33757 97.9699 1.99938 97.9699 2.66619C97.9699 8.00843 96.1446 13.1542 92.8632 16.9669C89.5781 20.7838 85.091 22.9603 80.3778 22.9603C75.6647 22.9603 71.1775 20.7838 67.8925 16.9669C64.611 13.1542 62.7858 8.00843 62.7858 2.66619C62.7858 1.99938 63.0125 1.33756 63.4486 0.830876Z" fill="url(#paint2_linear_397_4936)"/>
<path fill-rule="evenodd" clip-rule="evenodd" d="M77.4569 20.8398C77.9399 20.9621 78.2324 21.4527 78.1101 21.9357L75.8087 31.0271H84.6439L82.5589 21.9331C82.4476 21.4475 82.751 20.9636 83.2367 20.8523C83.7223 20.7409 84.2063 21.0444 84.3176 21.53L86.6557 31.7276C86.7171 31.9953 86.6531 32.2764 86.4819 32.4913C86.3108 32.7061 86.051 32.8313 85.7763 32.8313H74.6497C74.3715 32.8313 74.1088 32.7029 73.9378 32.4833C73.7669 32.2637 73.7069 31.9776 73.7751 31.7078L76.361 21.4929C76.4832 21.01 76.9739 20.7176 77.4569 20.8398Z" fill="url(#paint3_linear_397_4936)"/>
<path fill-rule="evenodd" clip-rule="evenodd" d="M80.4996 1.86933L78.4646 5.94255C78.3036 6.26484 77.9398 6.47311 77.538 6.47311H74.0478C74.0447 6.47848 74.0414 6.48501 74.0382 6.49285C74.0236 6.52811 74.0182 6.57314 74.027 6.61759C74.0359 6.66213 74.055 6.6868 74.0623 6.69411L74.0649 6.69671L77.3131 9.94794C77.558 10.1931 77.6294 10.5363 77.4988 10.8413L75.7029 15.0365C75.688 15.075 75.6836 15.1228 75.6941 15.169C75.695 15.1726 75.6959 15.1761 75.6968 15.1795L79.9428 12.7469C80.2792 12.5541 80.7142 12.5541 81.0506 12.7469L85.2988 15.1807C85.2997 15.1774 85.3006 15.1738 85.3015 15.1702C85.312 15.1238 85.3075 15.0757 85.2925 15.0372L83.4963 10.8413C83.3655 10.5358 83.4373 10.1921 83.683 9.94691L86.9361 6.70077L86.9377 6.69922C86.945 6.6919 86.9641 6.66727 86.973 6.62279C86.9818 6.57838 86.9764 6.53338 86.9619 6.49811C86.9586 6.49018 86.9553 6.48359 86.9521 6.47819H83.4621C83.0601 6.47819 82.6963 6.26981 82.5353 5.94739L80.4996 1.86933ZM81.3865 1.43504L82.3109 1.07598C82.1596 0.777479 81.9215 0.508928 81.6058 0.312615C81.2882 0.115057 80.9073 0.00115949 80.5057 8.80085e-06C80.104 -0.00114189 79.7222 0.110594 79.403 0.306593C79.0858 0.501346 78.846 0.768859 78.6929 1.06676L76.8764 4.70263H74.0124C73.583 4.6962 73.1759 4.82079 72.8441 5.03981C72.5111 5.25965 72.272 5.56131 72.1359 5.89103C71.9997 6.22067 71.9659 6.5782 72.0343 6.92164C72.1026 7.26433 72.2732 7.59434 72.5433 7.86322C72.5438 7.86374 72.5443 7.86427 72.5449 7.86479L75.3926 10.7153L73.8051 14.4236L73.8001 14.4357C73.6586 14.7815 73.6288 15.1575 73.7106 15.5159C73.7924 15.8743 73.9866 16.2165 74.2886 16.486C74.5927 16.7573 74.9952 16.9433 75.4469 16.9883C75.8977 17.0331 76.3394 16.9315 76.7059 16.7174L80.4967 14.5456L84.2865 16.7168C84.6526 16.9316 85.0942 17.0341 85.5453 16.9899C85.9978 16.9456 86.4013 16.7597 86.7061 16.4881C87.0089 16.2183 87.2033 15.8755 87.2851 15.5165C87.3669 15.1574 87.3368 14.7809 87.1946 14.4347L85.6028 10.7161L88.4552 7.86983C88.4555 7.86949 88.4559 7.86916 88.4562 7.86882C88.7264 7.60003 88.8972 7.2701 88.9655 6.92744C89.034 6.58428 89.0004 6.22702 88.8647 5.89755C88.729 5.568 88.4904 5.2664 88.158 5.04635C87.8266 4.82693 87.4197 4.7018 86.9901 4.7077H84.1239L82.3132 1.0806L81.3865 1.43504Z" fill="url(#paint4_linear_397_4936)"/>
<path d="M13.3027 174.5C13.1528 174.5 13.0028 174.462 12.8654 174.394L8.99776 172.482L5.13014 174.394C4.89896 174.512 4.63654 174.531 4.38661 174.45C4.13668 174.369 3.93674 174.194 3.81803 173.963C3.71181 173.75 3.68681 173.507 3.7493 173.275L4.90521 169.077L1.78737 165.99C1.40623 165.615 1.40623 164.997 1.78112 164.615C1.94358 164.44 2.16226 164.34 2.39344 164.322L6.15484 163.947L8.12926 160.035C8.37919 159.554 8.96652 159.361 9.44762 159.604C9.62882 159.698 9.77878 159.848 9.8725 160.029L11.8469 163.941L15.6146 164.315C15.8645 164.334 16.1019 164.459 16.2706 164.653C16.4393 164.853 16.5206 165.103 16.4956 165.359C16.4768 165.59 16.3768 165.803 16.2081 165.971L13.0903 169.058L14.2462 173.25C14.3837 173.775 14.0713 174.313 13.5527 174.45C13.4714 174.487 13.3902 174.5 13.3027 174.5ZM8.99776 171.488C9.06649 171.488 9.14146 171.507 9.20395 171.538L13.284 173.557L12.1156 169.058C12.0719 168.895 12.1156 168.72 12.2343 168.602L15.5458 165.321L11.497 164.859C11.3346 164.84 11.1971 164.747 11.1221 164.603L9.03525 160.46C9.029 160.454 9.02275 160.448 9.0165 160.442L6.87338 164.603C6.7984 164.747 6.66094 164.84 6.49849 164.859L2.47467 165.259L5.76121 168.602C5.87992 168.72 5.92991 168.895 5.88617 169.058L4.65528 173.519L8.79157 171.538C8.85405 171.507 8.92278 171.488 8.99776 171.488Z" fill="url(#paint5_linear_397_4936)"/>
<path d="M59.807 95.392V98H47.247V95.392H52.047V80.96C52.047 80.448 52.063 79.9253 52.095 79.392L48.399 82.512C48.239 82.64 48.0737 82.7253 47.903 82.768C47.743 82.8 47.5883 82.8 47.439 82.768C47.3003 82.736 47.1723 82.688 47.055 82.624C46.9483 82.5493 46.863 82.4693 46.799 82.384L45.727 80.88L52.671 74.912H55.471V95.392H59.807ZM79.6175 86.48C79.6175 88.496 79.3988 90.24 78.9615 91.712C78.5348 93.184 77.9428 94.4053 77.1855 95.376C76.4282 96.3467 75.5375 97.0667 74.5135 97.536C73.4895 98.0053 72.3855 98.24 71.2015 98.24C70.0175 98.24 68.9135 98.0053 67.8895 97.536C66.8655 97.0667 65.9748 96.3467 65.2175 95.376C64.4708 94.4053 63.8842 93.184 63.4575 91.712C63.0308 90.24 62.8175 88.496 62.8175 86.48C62.8175 84.464 63.0308 82.72 63.4575 81.248C63.8842 79.7653 64.4708 78.544 65.2175 77.584C65.9748 76.6133 66.8655 75.8933 67.8895 75.424C68.9135 74.944 70.0175 74.704 71.2015 74.704C72.3855 74.704 73.4895 74.944 74.5135 75.424C75.5375 75.8933 76.4282 76.6133 77.1855 77.584C77.9428 78.544 78.5348 79.7653 78.9615 81.248C79.3988 82.72 79.6175 84.464 79.6175 86.48ZM76.0655 86.48C76.0655 84.7733 75.9268 83.3547 75.6495 82.224C75.3828 81.0827 75.0255 80.1707 74.5775 79.488C74.1295 78.8053 73.6122 78.32 73.0255 78.032C72.4388 77.744 71.8308 77.6 71.2015 77.6C70.5615 77.6 69.9482 77.744 69.3615 78.032C68.7855 78.32 68.2735 78.8053 67.8255 79.488C67.3775 80.1707 67.0202 81.0827 66.7535 82.224C66.4868 83.3547 66.3535 84.7733 66.3535 86.48C66.3535 88.1867 66.4868 89.6107 66.7535 90.752C67.0202 91.8827 67.3775 92.7893 67.8255 93.472C68.2735 94.1547 68.7855 94.64 69.3615 94.928C69.9482 95.216 70.5615 95.36 71.2015 95.36C71.8308 95.36 72.4388 95.216 73.0255 94.928C73.6122 94.64 74.1295 94.1547 74.5775 93.472C75.0255 92.7893 75.3828 91.8827 75.6495 90.752C75.9268 89.6107 76.0655 88.1867 76.0655 86.48ZM98.18 86.48C98.18 88.496 97.9613 90.24 97.524 91.712C97.0973 93.184 96.5053 94.4053 95.748 95.376C94.9907 96.3467 94.1 97.0667 93.076 97.536C92.052 98.0053 90.948 98.24 89.764 98.24C88.58 98.24 87.476 98.0053 86.452 97.536C85.428 97.0667 84.5373 96.3467 83.78 95.376C83.0333 94.4053 82.4467 93.184 82.02 91.712C81.5933 90.24 81.38 88.496 81.38 86.48C81.38 84.464 81.5933 82.72 82.02 81.248C82.4467 79.7653 83.0333 78.544 83.78 77.584C84.5373 76.6133 85.428 75.8933 86.452 75.424C87.476 74.944 88.58 74.704 89.764 74.704C90.948 74.704 92.052 74.944 93.076 75.424C94.1 75.8933 94.9907 76.6133 95.748 77.584C96.5053 78.544 97.0973 79.7653 97.524 81.248C97.9613 82.72 98.18 84.464 98.18 86.48ZM94.628 86.48C94.628 84.7733 94.4893 83.3547 94.212 82.224C93.9453 81.0827 93.588 80.1707 93.14 79.488C92.692 78.8053 92.1747 78.32 91.588 78.032C91.0013 77.744 90.3933 77.6 89.764 77.6C89.124 77.6 88.5107 77.744 87.924 78.032C87.348 78.32 86.836 78.8053 86.388 79.488C85.94 80.1707 85.5827 81.0827 85.316 82.224C85.0493 83.3547 84.916 84.7733 84.916 86.48C84.916 88.1867 85.0493 89.6107 85.316 90.752C85.5827 91.8827 85.94 92.7893 86.388 93.472C86.836 94.1547 87.348 94.64 87.924 94.928C88.5107 95.216 89.124 95.36 89.764 95.36C90.3933 95.36 91.0013 95.216 91.588 94.928C92.1747 94.64 92.692 94.1547 93.14 93.472C93.588 92.7893 93.9453 91.8827 94.212 90.752C94.4893 89.6107 94.628 88.1867 94.628 86.48ZM116.743 86.48C116.743 88.496 116.524 90.24 116.087 91.712C115.66 93.184 115.068 94.4053 114.311 95.376C113.553 96.3467 112.663 97.0667 111.639 97.536C110.615 98.0053 109.511 98.24 108.327 98.24C107.143 98.24 106.039 98.0053 105.015 97.536C103.991 97.0667 103.1 96.3467 102.343 95.376C101.596 94.4053 101.009 93.184 100.583 91.712C100.156 90.24 99.9425 88.496 99.9425 86.48C99.9425 84.464 100.156 82.72 100.583 81.248C101.009 79.7653 101.596 78.544 102.343 77.584C103.1 76.6133 103.991 75.8933 105.015 75.424C106.039 74.944 107.143 74.704 108.327 74.704C109.511 74.704 110.615 74.944 111.639 75.424C112.663 75.8933 113.553 76.6133 114.311 77.584C115.068 78.544 115.66 79.7653 116.087 81.248C116.524 82.72 116.743 84.464 116.743 86.48ZM113.191 86.48C113.191 84.7733 113.052 83.3547 112.775 82.224C112.508 81.0827 112.151 80.1707 111.703 79.488C111.255 78.8053 110.737 78.32 110.151 78.032C109.564 77.744 108.956 77.6 108.327 77.6C107.687 77.6 107.073 77.744 106.487 78.032C105.911 78.32 105.399 78.8053 104.951 79.488C104.503 80.1707 104.145 81.0827 103.879 82.224C103.612 83.3547 103.479 84.7733 103.479 86.48C103.479 88.1867 103.612 89.6107 103.879 90.752C104.145 91.8827 104.503 92.7893 104.951 93.472C105.399 94.1547 105.911 94.64 106.487 94.928C107.073 95.216 107.687 95.36 108.327 95.36C108.956 95.36 109.564 95.216 110.151 94.928C110.737 94.64 111.255 94.1547 111.703 93.472C112.151 92.7893 112.508 91.8827 112.775 90.752C113.052 89.6107 113.191 88.1867 113.191 86.48Z" fill="#666666"/>
<path d="M31.8306 122V112.883H32.7846C33.0126 112.883 33.1566 112.994 33.2166 113.216L33.3336 114.152C33.6696 113.738 34.0446 113.399 34.4586 113.135C34.8786 112.871 35.3646 112.739 35.9166 112.739C36.5346 112.739 37.0326 112.91 37.4106 113.252C37.7946 113.594 38.0706 114.056 38.2386 114.638C38.3646 114.308 38.5296 114.023 38.7336 113.783C38.9436 113.543 39.1776 113.345 39.4356 113.189C39.6936 113.033 39.9666 112.919 40.2546 112.847C40.5486 112.775 40.8456 112.739 41.1456 112.739C41.6256 112.739 42.0516 112.817 42.4236 112.973C42.8016 113.123 43.1196 113.345 43.3776 113.639C43.6416 113.933 43.8426 114.296 43.9806 114.728C44.1186 115.154 44.1876 115.643 44.1876 116.195V122H42.5856V116.195C42.5856 115.481 42.4296 114.941 42.1176 114.575C41.8056 114.203 41.3526 114.017 40.7586 114.017C40.4946 114.017 40.2426 114.065 40.0026 114.161C39.7686 114.251 39.5616 114.386 39.3816 114.566C39.2016 114.746 39.0576 114.974 38.9496 115.25C38.8476 115.52 38.7966 115.835 38.7966 116.195V122H37.1946V116.195C37.1946 115.463 37.0476 114.917 36.7536 114.557C36.4596 114.197 36.0306 114.017 35.4666 114.017C35.0706 114.017 34.7016 114.125 34.3596 114.341C34.0236 114.551 33.7146 114.839 33.4326 115.205V122H31.8306ZM50.2228 112.739C50.7688 112.739 51.2728 112.832 51.7348 113.018C52.1968 113.198 52.5958 113.462 52.9318 113.81C53.2678 114.152 53.5288 114.578 53.7148 115.088C53.9068 115.592 54.0028 116.168 54.0028 116.816C54.0028 117.068 53.9758 117.236 53.9218 117.32C53.8678 117.404 53.7658 117.446 53.6158 117.446H47.5498C47.5618 118.022 47.6398 118.523 47.7838 118.949C47.9278 119.375 48.1258 119.732 48.3778 120.02C48.6298 120.302 48.9298 120.515 49.2778 120.659C49.6258 120.797 50.0158 120.866 50.4478 120.866C50.8498 120.866 51.1948 120.821 51.4828 120.731C51.7768 120.635 52.0288 120.533 52.2388 120.425C52.4488 120.317 52.6228 120.218 52.7608 120.128C52.9048 120.032 53.0278 119.984 53.1298 119.984C53.2618 119.984 53.3638 120.035 53.4358 120.137L53.8858 120.722C53.6878 120.962 53.4508 121.172 53.1748 121.352C52.8988 121.526 52.6018 121.67 52.2838 121.784C51.9718 121.898 51.6478 121.982 51.3118 122.036C50.9758 122.096 50.6428 122.126 50.3128 122.126C49.6828 122.126 49.1008 122.021 48.5668 121.811C48.0388 121.595 47.5798 121.283 47.1898 120.875C46.8058 120.461 46.5058 119.951 46.2898 119.345C46.0738 118.739 45.9658 118.043 45.9658 117.257C45.9658 116.621 46.0618 116.027 46.2538 115.475C46.4518 114.923 46.7338 114.446 47.0998 114.044C47.4658 113.636 47.9128 113.318 48.4408 113.09C48.9688 112.856 49.5628 112.739 50.2228 112.739ZM50.2588 113.918C49.4848 113.918 48.8758 114.143 48.4318 114.593C47.9878 115.037 47.7118 115.655 47.6038 116.447H52.5628C52.5628 116.075 52.5118 115.736 52.4098 115.43C52.3078 115.118 52.1578 114.851 51.9598 114.629C51.7618 114.401 51.5188 114.227 51.2308 114.107C50.9488 113.981 50.6248 113.918 50.2588 113.918ZM57.4393 112.883V118.697C57.4393 119.387 57.5983 119.921 57.9163 120.299C58.2343 120.677 58.7143 120.866 59.3563 120.866C59.8243 120.866 60.2653 120.755 60.6793 120.533C61.0933 120.311 61.4743 120.002 61.8223 119.606V112.883H63.4243V122H62.4703C62.2423 122 62.0983 121.889 62.0383 121.667L61.9123 120.686C61.5163 121.124 61.0723 121.478 60.5803 121.748C60.0883 122.012 59.5243 122.144 58.8883 122.144C58.3903 122.144 57.9493 122.063 57.5653 121.901C57.1873 121.733 56.8693 121.499 56.6113 121.199C56.3533 120.899 56.1583 120.536 56.0263 120.11C55.9003 119.684 55.8373 119.213 55.8373 118.697V112.883H57.4393ZM71.2752 114.386C71.2032 114.518 71.0922 114.584 70.9422 114.584C70.8522 114.584 70.7502 114.551 70.6362 114.485C70.5222 114.419 70.3812 114.347 70.2132 114.269C70.0512 114.185 69.8562 114.11 69.6282 114.044C69.4002 113.972 69.1302 113.936 68.8182 113.936C68.5482 113.936 68.3052 113.972 68.0892 114.044C67.8732 114.11 67.6872 114.203 67.5312 114.323C67.3812 114.443 67.2642 114.584 67.1802 114.746C67.1022 114.902 67.0632 115.073 67.0632 115.259C67.0632 115.493 67.1292 115.688 67.2612 115.844C67.3992 116 67.5792 116.135 67.8012 116.249C68.0232 116.363 68.2752 116.465 68.5572 116.555C68.8392 116.639 69.1272 116.732 69.4212 116.834C69.7212 116.93 70.0122 117.038 70.2942 117.158C70.5762 117.278 70.8282 117.428 71.0502 117.608C71.2722 117.788 71.4492 118.01 71.5812 118.274C71.7192 118.532 71.7882 118.844 71.7882 119.21C71.7882 119.63 71.7132 120.02 71.5632 120.38C71.4132 120.734 71.1912 121.043 70.8972 121.307C70.6032 121.565 70.2432 121.769 69.8172 121.919C69.3912 122.069 68.8992 122.144 68.3412 122.144C67.7052 122.144 67.1292 122.042 66.6132 121.838C66.0972 121.628 65.6592 121.361 65.2992 121.037L65.6772 120.425C65.7252 120.347 65.7822 120.287 65.8482 120.245C65.9142 120.203 66.0012 120.182 66.1092 120.182C66.2172 120.182 66.3312 120.224 66.4512 120.308C66.5712 120.392 66.7152 120.485 66.8832 120.587C67.0572 120.689 67.2642 120.782 67.5042 120.866C67.7502 120.95 68.0562 120.992 68.4222 120.992C68.7342 120.992 69.0072 120.953 69.2412 120.875C69.4752 120.791 69.6702 120.68 69.8262 120.542C69.9822 120.404 70.0962 120.245 70.1682 120.065C70.2462 119.885 70.2852 119.693 70.2852 119.489C70.2852 119.237 70.2162 119.03 70.0782 118.868C69.9462 118.7 69.7692 118.559 69.5472 118.445C69.3252 118.325 69.0702 118.223 68.7822 118.139C68.5002 118.049 68.2092 117.956 67.9092 117.86C67.6152 117.764 67.3242 117.656 67.0362 117.536C66.7542 117.41 66.5022 117.254 66.2802 117.068C66.0582 116.882 65.8782 116.654 65.7402 116.384C65.6082 116.108 65.5422 115.775 65.5422 115.385C65.5422 115.037 65.6142 114.704 65.7582 114.386C65.9022 114.062 66.1122 113.78 66.3882 113.54C66.6642 113.294 67.0032 113.099 67.4052 112.955C67.8072 112.811 68.2662 112.739 68.7822 112.739C69.3822 112.739 69.9192 112.835 70.3932 113.027C70.8732 113.213 71.2872 113.471 71.6352 113.801L71.2752 114.386ZM77.3404 125.087V112.883H78.2944C78.5224 112.883 78.6664 112.994 78.7264 113.216L78.8614 114.296C79.2514 113.822 79.6954 113.441 80.1934 113.153C80.6974 112.865 81.2764 112.721 81.9304 112.721C82.4524 112.721 82.9264 112.823 83.3524 113.027C83.7784 113.225 84.1414 113.522 84.4414 113.918C84.7414 114.308 84.9724 114.794 85.1344 115.376C85.2964 115.958 85.3774 116.627 85.3774 117.383C85.3774 118.055 85.2874 118.682 85.1074 119.264C84.9274 119.84 84.6694 120.341 84.3334 120.767C83.9974 121.187 83.5834 121.52 83.0914 121.766C82.6054 122.006 82.0564 122.126 81.4444 122.126C80.8804 122.126 80.3974 122.033 79.9954 121.847C79.5994 121.661 79.2484 121.397 78.9424 121.055V125.087H77.3404ZM81.3994 114.017C80.8774 114.017 80.4184 114.137 80.0224 114.377C79.6324 114.617 79.2724 114.956 78.9424 115.394V119.804C79.2364 120.2 79.5574 120.479 79.9054 120.641C80.2594 120.803 80.6524 120.884 81.0844 120.884C81.9304 120.884 82.5814 120.581 83.0374 119.975C83.4934 119.369 83.7214 118.505 83.7214 117.383C83.7214 116.789 83.6674 116.279 83.5594 115.853C83.4574 115.427 83.3074 115.079 83.1094 114.809C82.9114 114.533 82.6684 114.332 82.3804 114.206C82.0924 114.08 81.7654 114.017 81.3994 114.017ZM90.962 112.739C91.628 112.739 92.228 112.85 92.762 113.072C93.302 113.294 93.758 113.609 94.13 114.017C94.508 114.425 94.796 114.92 94.994 115.502C95.198 116.078 95.3 116.723 95.3 117.437C95.3 118.157 95.198 118.805 94.994 119.381C94.796 119.957 94.508 120.449 94.13 120.857C93.758 121.265 93.302 121.58 92.762 121.802C92.228 122.018 91.628 122.126 90.962 122.126C90.296 122.126 89.693 122.018 89.153 121.802C88.619 121.58 88.163 121.265 87.785 120.857C87.407 120.449 87.116 119.957 86.912 119.381C86.708 118.805 86.606 118.157 86.606 117.437C86.606 116.723 86.708 116.078 86.912 115.502C87.116 114.92 87.407 114.425 87.785 114.017C88.163 113.609 88.619 113.294 89.153 113.072C89.693 112.85 90.296 112.739 90.962 112.739ZM90.962 120.875C91.862 120.875 92.534 120.575 92.978 119.975C93.422 119.369 93.644 118.526 93.644 117.446C93.644 116.36 93.422 115.514 92.978 114.908C92.534 114.302 91.862 113.999 90.962 113.999C90.506 113.999 90.11 114.077 89.774 114.233C89.438 114.389 89.156 114.614 88.928 114.908C88.706 115.202 88.538 115.565 88.424 115.997C88.316 116.423 88.262 116.906 88.262 117.446C88.262 117.986 88.316 118.469 88.424 118.895C88.538 119.321 88.706 119.681 88.928 119.975C89.156 120.263 89.438 120.485 89.774 120.641C90.11 120.797 90.506 120.875 90.962 120.875ZM97.274 122V112.883H98.228C98.456 112.883 98.6 112.994 98.66 113.216L98.786 114.206C99.182 113.768 99.623 113.414 100.109 113.144C100.601 112.874 101.168 112.739 101.81 112.739C102.308 112.739 102.746 112.823 103.124 112.991C103.508 113.153 103.826 113.387 104.078 113.693C104.336 113.993 104.531 114.356 104.663 114.782C104.795 115.208 104.861 115.679 104.861 116.195V122H103.259V116.195C103.259 115.505 103.1 114.971 102.782 114.593C102.47 114.209 101.99 114.017 101.342 114.017C100.868 114.017 100.424 114.131 100.01 114.359C99.602 114.587 99.224 114.896 98.876 115.286V122H97.274ZM110.039 122.144C109.319 122.144 108.764 121.943 108.374 121.541C107.99 121.139 107.798 120.56 107.798 119.804V114.224H106.7C106.604 114.224 106.523 114.197 106.457 114.143C106.391 114.083 106.358 113.993 106.358 113.873V113.234L107.852 113.045L108.221 110.228C108.233 110.138 108.272 110.066 108.338 110.012C108.404 109.952 108.488 109.922 108.59 109.922H109.4V113.063H112.01V114.224H109.4V119.696C109.4 120.08 109.493 120.365 109.679 120.551C109.865 120.737 110.105 120.83 110.399 120.83C110.567 120.83 110.711 120.809 110.831 120.767C110.957 120.719 111.065 120.668 111.155 120.614C111.245 120.56 111.32 120.512 111.38 120.47C111.446 120.422 111.503 120.398 111.551 120.398C111.635 120.398 111.71 120.449 111.776 120.551L112.244 121.316C111.968 121.574 111.635 121.778 111.245 121.928C110.855 122.072 110.453 122.144 110.039 122.144ZM117.681 112.739C118.347 112.739 118.947 112.85 119.481 113.072C120.021 113.294 120.477 113.609 120.849 114.017C121.227 114.425 121.515 114.92 121.713 115.502C121.917 116.078 122.019 116.723 122.019 117.437C122.019 118.157 121.917 118.805 121.713 119.381C121.515 119.957 121.227 120.449 120.849 120.857C120.477 121.265 120.021 121.58 119.481 121.802C118.947 122.018 118.347 122.126 117.681 122.126C117.015 122.126 116.412 122.018 115.872 121.802C115.338 121.58 114.882 121.265 114.504 120.857C114.126 120.449 113.835 119.957 113.631 119.381C113.427 118.805 113.325 118.157 113.325 117.437C113.325 116.723 113.427 116.078 113.631 115.502C113.835 114.92 114.126 114.425 114.504 114.017C114.882 113.609 115.338 113.294 115.872 113.072C116.412 112.85 117.015 112.739 117.681 112.739ZM117.681 120.875C118.581 120.875 119.253 120.575 119.697 119.975C120.141 119.369 120.363 118.526 120.363 117.446C120.363 116.36 120.141 115.514 119.697 114.908C119.253 114.302 118.581 113.999 117.681 113.999C117.225 113.999 116.829 114.077 116.493 114.233C116.157 114.389 115.875 114.614 115.647 114.908C115.425 115.202 115.257 115.565 115.143 115.997C115.035 116.423 114.981 116.906 114.981 117.446C114.981 117.986 115.035 118.469 115.143 118.895C115.257 119.321 115.425 119.681 115.647 119.975C115.875 120.263 116.157 120.485 116.493 120.641C116.829 120.797 117.225 120.875 117.681 120.875ZM129.213 114.386C129.141 114.518 129.03 114.584 128.88 114.584C128.79 114.584 128.688 114.551 128.574 114.485C128.46 114.419 128.319 114.347 128.151 114.269C127.989 114.185 127.794 114.11 127.566 114.044C127.338 113.972 127.068 113.936 126.756 113.936C126.486 113.936 126.243 113.972 126.027 114.044C125.811 114.11 125.625 114.203 125.469 114.323C125.319 114.443 125.202 114.584 125.118 114.746C125.04 114.902 125.001 115.073 125.001 115.259C125.001 115.493 125.067 115.688 125.199 115.844C125.337 116 125.517 116.135 125.739 116.249C125.961 116.363 126.213 116.465 126.495 116.555C126.777 116.639 127.065 116.732 127.359 116.834C127.659 116.93 127.95 117.038 128.232 117.158C128.514 117.278 128.766 117.428 128.988 117.608C129.21 117.788 129.387 118.01 129.519 118.274C129.657 118.532 129.726 118.844 129.726 119.21C129.726 119.63 129.651 120.02 129.501 120.38C129.351 120.734 129.129 121.043 128.835 121.307C128.541 121.565 128.181 121.769 127.755 121.919C127.329 122.069 126.837 122.144 126.279 122.144C125.643 122.144 125.067 122.042 124.551 121.838C124.035 121.628 123.597 121.361 123.237 121.037L123.615 120.425C123.663 120.347 123.72 120.287 123.786 120.245C123.852 120.203 123.939 120.182 124.047 120.182C124.155 120.182 124.269 120.224 124.389 120.308C124.509 120.392 124.653 120.485 124.821 120.587C124.995 120.689 125.202 120.782 125.442 120.866C125.688 120.95 125.994 120.992 126.36 120.992C126.672 120.992 126.945 120.953 127.179 120.875C127.413 120.791 127.608 120.68 127.764 120.542C127.92 120.404 128.034 120.245 128.106 120.065C128.184 119.885 128.223 119.693 128.223 119.489C128.223 119.237 128.154 119.03 128.016 118.868C127.884 118.7 127.707 118.559 127.485 118.445C127.263 118.325 127.008 118.223 126.72 118.139C126.438 118.049 126.147 117.956 125.847 117.86C125.553 117.764 125.262 117.656 124.974 117.536C124.692 117.41 124.44 117.254 124.218 117.068C123.996 116.882 123.816 116.654 123.678 116.384C123.546 116.108 123.48 115.775 123.48 115.385C123.48 115.037 123.552 114.704 123.696 114.386C123.84 114.062 124.05 113.78 124.326 113.54C124.602 113.294 124.941 113.099 125.343 112.955C125.745 112.811 126.204 112.739 126.72 112.739C127.32 112.739 127.857 112.835 128.331 113.027C128.811 113.213 129.225 113.471 129.573 113.801L129.213 114.386Z" fill="#999999"/>
<defs>
<linearGradient id="paint0_linear_397_4936" x1="161" y1="58.5135" x2="-9.99339" y2="99.7372" gradientUnits="userSpaceOnUse">
<stop stop-color="#ED3957"/>
<stop offset="1" stop-color="#F8524B"/>
</linearGradient>
<linearGradient id="paint1_linear_397_4936" x1="91.2939" y1="33.6119" x2="72.4651" y2="43.9773" gradientUnits="userSpaceOnUse">
<stop stop-color="#ED3957"/>
<stop offset="1" stop-color="#F8524B"/>
</linearGradient>
<linearGradient id="paint2_linear_397_4936" x1="97.9699" y1="6.20603" x2="63.1786" y2="19.0595" gradientUnits="userSpaceOnUse">
<stop stop-color="#ED3957"/>
<stop offset="1" stop-color="#F8524B"/>
</linearGradient>
<linearGradient id="paint3_linear_397_4936" x1="86.6785" y1="24.0605" x2="73.0627" y2="27.592" gradientUnits="userSpaceOnUse">
<stop stop-color="#ED3957"/>
<stop offset="1" stop-color="#F8524B"/>
</linearGradient>
<linearGradient id="paint4_linear_397_4936" x1="89" y1="4.5946" x2="70.9448" y2="8.94741" gradientUnits="userSpaceOnUse">
<stop stop-color="#ED3957"/>
<stop offset="1" stop-color="#F8524B"/>
</linearGradient>
<linearGradient id="paint5_linear_397_4936" x1="16.5" y1="163.553" x2="0.56952" y2="167.393" gradientUnits="userSpaceOnUse">
<stop stop-color="#ED3957"/>
<stop offset="1" stop-color="#F8524B"/>
</linearGradient>
</defs>
</svg>
