<svg width="15" height="14" viewBox="0 0 15 14" fill="none" xmlns="http://www.w3.org/2000/svg">
<path d="M7.1739 0C5.78943 0 4.43606 0.410543 3.28492 1.17971C2.13378 1.94888 1.23654 3.04213 0.706732 4.32122C0.176919 5.6003 0.0383001 7.00776 0.308396 8.36563C0.578492 9.7235 1.2452 10.9708 2.22417 11.9497C3.20313 12.9287 4.45042 13.5954 5.80828 13.8655C7.16615 14.1356 8.5736 13.997 9.85268 13.4672C11.1318 12.9373 12.225 12.0401 12.9942 10.889C13.7633 9.73785 14.1739 8.38447 14.1739 7C14.1739 5.14348 13.4364 3.36301 12.1236 2.05025C10.8109 0.737498 9.03041 0 7.1739 0ZM7.1739 2.1C7.58924 2.1 7.99527 2.22316 8.34061 2.45391C8.68596 2.68467 8.95508 3.01264 9.11402 3.39637C9.27297 3.78009 9.31458 4.20233 9.23356 4.60969C9.15253 5.01705 8.95251 5.39123 8.65882 5.68492C8.36513 5.97861 7.99094 6.17862 7.58358 6.25965C7.17622 6.34068 6.75397 6.29909 6.37025 6.14015C5.98653 5.9812 5.65855 5.71204 5.42779 5.3667C5.19704 5.02135 5.07389 4.61534 5.07389 4.2C5.07389 3.64305 5.29516 3.1089 5.68898 2.71507C6.08281 2.32125 6.61695 2.1 7.1739 2.1ZM7.1739 12.04C6.34206 12.0398 5.52319 11.8338 4.79034 11.4402C4.0575 11.0466 3.43345 10.4778 2.97389 9.78444C2.991 8.39533 5.7739 7.62844 7.1739 7.62844C8.5739 7.62844 11.3529 8.39533 11.3739 9.78444C10.9143 10.4778 10.2903 11.0466 9.55746 11.4402C8.82461 11.8338 8.00574 12.0398 7.1739 12.04Z" fill="#E0E0E0"/>
</svg>
