<svg width="15" height="15" viewBox="0 0 15 15" fill="none" xmlns="http://www.w3.org/2000/svg">
<path d="M7.1739 0.362305C5.78943 0.362305 4.43606 0.772809 3.28492 1.54198C2.13378 2.31115 1.23654 3.40449 0.706732 4.68357C0.176919 5.96266 0.0383001 7.37011 0.308396 8.72798C0.578492 10.0859 1.2452 11.3331 2.22417 12.3121C3.20313 13.2911 4.45042 13.9577 5.80828 14.2278C7.16615 14.4979 8.5736 14.3593 9.85268 13.8295C11.1318 13.2997 12.225 12.4024 12.9942 11.2513C13.7633 10.1002 14.1739 8.74678 14.1739 7.36231C14.1739 5.5058 13.4364 3.72527 12.1236 2.41252C10.8109 1.09976 9.03041 0.362305 7.1739 0.362305ZM7.87392 10.8623H6.47388V6.66229H7.87392V10.8623ZM7.87392 5.26235H6.47388V3.86231H7.87392V5.26235Z" fill="#E0E0E0"/>
</svg>
