<svg width="12" height="14" viewBox="0 0 12 14" fill="none" xmlns="http://www.w3.org/2000/svg">
<path d="M9.799 4.63287H9.11156V3.29483C9.09777 2.4164 8.72952 1.57846 8.08634 0.962004C7.44315 0.345548 6.57662 0 5.67389 0C4.77116 0 3.90468 0.345548 3.26149 0.962004C2.61831 1.57846 2.25006 2.4164 2.23627 3.29483V4.63287H1.54883C1.18418 4.63287 0.834427 4.77389 0.576584 5.02482C0.31874 5.27575 0.173889 5.61604 0.173889 5.97091V12.662C0.173889 13.0168 0.31874 13.3571 0.576584 13.6081C0.834427 13.859 1.18418 14 1.54883 14H9.799C10.1636 14 10.5134 13.859 10.7712 13.6081C11.029 13.3571 11.1739 13.0168 11.1739 12.662V5.97091C11.1739 5.61604 11.029 5.27575 10.7712 5.02482C10.5134 4.77389 10.1636 4.63287 9.799 4.63287ZM5.6735 10.6549C5.40157 10.6549 5.13573 10.5764 4.90963 10.4294C4.68353 10.2824 4.50735 10.0733 4.40328 9.82884C4.29922 9.58434 4.272 9.31536 4.32505 9.0558C4.3781 8.79625 4.50902 8.55776 4.7013 8.37063C4.89359 8.1835 5.13859 8.05614 5.4053 8.00451C5.672 7.95288 5.94844 7.97937 6.19967 8.08065C6.4509 8.18192 6.66563 8.35338 6.81671 8.57342C6.96779 8.79346 7.04839 9.05217 7.04839 9.31682C7.04839 9.49253 7.01286 9.6665 6.94376 9.82884C6.87467 9.99118 6.77336 10.1388 6.64569 10.263C6.51802 10.3873 6.36648 10.4857 6.19967 10.553C6.03286 10.6202 5.85405 10.6549 5.6735 10.6549ZM7.80482 4.63287H3.54218V3.29483C3.54218 2.74472 3.76671 2.21713 4.16642 1.82814C4.56612 1.43915 5.10823 1.22064 5.6735 1.22064C6.23876 1.22064 6.78088 1.43915 7.18058 1.82814C7.58028 2.21713 7.80482 2.74472 7.80482 3.29483V4.63287Z" fill="#E0E0E0"/>
</svg>
