<svg width="12" height="15" viewBox="0 0 12 15" fill="none" xmlns="http://www.w3.org/2000/svg">
<path d="M7.0489 0.941895H1.5489C1.36869 0.941995 1.19026 0.978323 1.02387 1.0488C0.857478 1.11928 0.706388 1.2225 0.579276 1.35257C0.452163 1.48265 0.351528 1.63701 0.283143 1.80678C0.214758 1.97655 0.179975 2.15839 0.18078 2.34189L0.173903 13.5419C0.173098 13.7254 0.207881 13.9072 0.276266 14.077C0.344651 14.2468 0.445286 14.4011 0.572398 14.5312C0.699511 14.6613 0.850601 14.7645 1.01699 14.835C1.18339 14.9055 1.36181 14.9418 1.54203 14.9419H9.7989C10.1636 14.9419 10.5133 14.7944 10.7712 14.5318C11.029 14.2693 11.1739 13.9132 11.1739 13.5419V5.14191L7.0489 0.941895ZM8.4239 12.1419H2.92391V10.7419H8.4239V12.1419ZM8.4239 9.34189H2.92391V7.94189H8.4239V9.34189ZM6.3614 5.84189V1.99188L10.1426 5.84189H6.3614Z" fill="#E0E0E0"/>
</svg>
