<svg width="38" height="38" viewBox="0 0 38 38" fill="none" xmlns="http://www.w3.org/2000/svg">
<g filter="url(#filter0_d_397_4115)">
<path d="M19 29C26.1797 29 32 23.1797 32 16C32 8.8203 26.1797 3 19 3C11.8203 3 6 8.8203 6 16C6 23.1797 11.8203 29 19 29Z" fill="#F75C57"/>
</g>
<path d="M12.7663 22.8045C12.7185 22.7415 12.6858 22.6683 12.6707 22.5906C12.6557 22.5129 12.6588 22.4328 12.6797 22.3565L13.5885 19.1695C13.6146 19.0849 13.6619 19.0084 13.7259 18.9473C13.7899 18.8861 13.8685 18.8423 13.9542 18.82C14.0398 18.7978 14.1298 18.7977 14.2155 18.82C14.3012 18.8422 14.3797 18.886 14.4438 18.9471L16.721 21.2244C16.7844 21.2876 16.8301 21.3664 16.8536 21.4529C16.877 21.5394 16.8774 21.6305 16.8546 21.7172C16.8319 21.8038 16.7872 21.8831 16.7248 21.9474C16.6624 22.0116 16.5845 22.0587 16.4986 22.0839L13.3105 22.9937C13.2642 23.0065 13.2164 23.013 13.1683 23.013C13.0899 23.011 13.0129 22.9913 12.9432 22.9551C12.8736 22.919 12.8131 22.8675 12.7663 22.8045ZM17.8564 20.9015L14.7698 17.8171C14.6735 17.7207 14.6193 17.5899 14.6193 17.4536C14.6193 17.3173 14.6735 17.1865 14.7698 17.0901L19.9197 11.937C20.0162 11.8406 20.1469 11.7865 20.2832 11.7865C20.4196 11.7865 20.5503 11.8406 20.6467 11.937L23.7333 15.0214C23.8296 15.1178 23.8838 15.2485 23.8838 15.3849C23.8838 15.5212 23.8296 15.6519 23.7333 15.7484L18.5812 20.9015C18.4847 20.9976 18.354 21.0515 18.2177 21.0515C18.0815 21.0515 17.9508 20.9976 17.8542 20.9015H17.8564ZM24.4624 14.2965L21.3748 11.2121C21.2797 11.115 21.2265 10.9845 21.2265 10.8486C21.2265 10.7127 21.2797 10.5822 21.3748 10.4851C21.8743 9.97347 22.5565 9.68118 23.2715 9.67256C23.9865 9.66394 24.6756 9.93969 25.1873 10.4392C25.6989 10.9386 25.9912 11.6209 25.9998 12.3359C26.0084 13.0508 25.7327 13.7399 25.2332 14.2516C25.115 14.3644 24.9583 14.4279 24.7949 14.4291H24.7831C24.6624 14.4281 24.5468 14.3807 24.4603 14.2965H24.4624Z" fill="white"/>
<defs>
<filter id="filter0_d_397_4115" x="0" y="0" width="38" height="38" filterUnits="userSpaceOnUse" color-interpolation-filters="sRGB">
<feFlood flood-opacity="0" result="BackgroundImageFix"/>
<feColorMatrix in="SourceAlpha" type="matrix" values="0 0 0 0 0 0 0 0 0 0 0 0 0 0 0 0 0 0 127 0" result="hardAlpha"/>
<feOffset dy="3"/>
<feGaussianBlur stdDeviation="3"/>
<feColorMatrix type="matrix" values="0 0 0 0 0 0 0 0 0 0 0 0 0 0 0 0 0 0 0.161 0"/>
<feBlend mode="normal" in2="BackgroundImageFix" result="effect1_dropShadow_397_4115"/>
<feBlend mode="normal" in="SourceGraphic" in2="effect1_dropShadow_397_4115" result="shape"/>
</filter>
</defs>
</svg>
