<svg width="15" height="11" viewBox="0 0 15 11" fill="none" xmlns="http://www.w3.org/2000/svg">
<path d="M1.24886 0.0585938H13.9515C14.1251 0.0585938 14.2916 0.127579 14.4144 0.250356C14.5372 0.373134 14.6062 0.539646 14.6062 0.71328V2.84971H0.594177V0.715603C0.594177 0.54197 0.663156 0.375445 0.785934 0.252668C0.908711 0.12989 1.07523 0.0609172 1.24886 0.0609172V0.0585938ZM14.6062 4.17764V9.77841C14.6062 9.95204 14.5372 10.1186 14.4144 10.2413C14.2916 10.3641 14.1251 10.4331 13.9515 10.4331H1.24886C1.07523 10.4331 0.908711 10.3641 0.785934 10.2413C0.663156 10.1186 0.594177 9.95204 0.594177 9.77841V4.17764H14.6062Z" fill="#E0E0E0"/>
<path d="M12.1883 5.88891C12.1883 5.46203 11.8423 5.11597 11.4154 5.11597C10.9885 5.11597 10.6425 5.46203 10.6425 5.88891V8.9807C10.6425 9.40759 10.9885 9.75365 11.4154 9.75365C11.8423 9.75365 12.1883 9.40759 12.1883 8.9807V5.88891Z" fill="white"/>
<path d="M9.22333 7.51056V7.58863C9.22333 8.01551 9.56939 8.36157 9.99627 8.36157H12.7797C13.2065 8.36157 13.5526 8.01551 13.5526 7.58863V7.51056C13.5526 7.08367 13.2065 6.73761 12.7797 6.73761H9.99627C9.56939 6.73761 9.22333 7.08367 9.22333 7.51056Z" fill="white"/>
</svg>
