<svg width="7" height="12" viewBox="0 0 7 12" fill="none" xmlns="http://www.w3.org/2000/svg">
<path d="M5.11922 5.69556L0.535645 10.2791C0.453646 10.3611 0.407579 10.4723 0.407579 10.5883C0.407579 10.7043 0.453646 10.8155 0.535645 10.8975C0.617644 10.9795 0.728859 11.0256 0.844824 11.0256C0.960788 11.0256 1.072 10.9795 1.154 10.8975L5.81101 6.23276C5.88168 6.16212 5.93775 6.07826 5.976 5.98595C6.01425 5.89364 6.03394 5.7947 6.03394 5.69479C6.03394 5.59487 6.01425 5.49593 5.976 5.40362C5.93775 5.31131 5.88168 5.22745 5.81101 5.15681L1.15014 0.496718C1.06814 0.414719 0.956923 0.368652 0.840959 0.368652C0.724994 0.368652 0.613779 0.414719 0.53178 0.496718C0.449781 0.578718 0.403714 0.689933 0.403714 0.805897C0.403714 0.921862 0.449781 1.03308 0.53178 1.11508L5.11922 5.69556Z" fill="#CBCFDD"/>
</svg>
