<svg width="18" height="18" viewBox="0 0 18 18" fill="none" xmlns="http://www.w3.org/2000/svg">
<path d="M3.50164 4.4088C4.27168 3.71901 5.17615 3.19605 6.15814 2.8728C6.43892 3.22457 6.79538 3.50852 7.20102 3.70355C7.60666 3.89858 8.05105 3.99967 8.50114 3.9993C8.95122 3.99967 9.39561 3.89858 9.80125 3.70355C10.2069 3.50852 10.5634 3.22457 10.8441 2.8728C11.8261 3.19605 12.7306 3.71901 13.5006 4.4088C13.3368 4.82764 13.2693 5.27801 13.3034 5.72647C13.3374 6.17493 13.472 6.60998 13.6971 6.9993C13.9218 7.38937 14.2316 7.72377 14.6033 7.97762C14.9751 8.23147 15.3993 8.39825 15.8444 8.46555C16.0548 9.47723 16.0548 10.5214 15.8444 11.5331C14.9744 11.6666 14.1719 12.1781 13.6971 12.9993C13.4718 13.3887 13.3372 13.8239 13.3032 14.2725C13.2692 14.7211 13.3366 15.1716 13.5006 15.5906C12.7305 16.2801 11.8261 16.8028 10.8441 17.1258C10.5633 16.7742 10.2068 16.4904 9.80115 16.2955C9.39551 16.1006 8.95116 15.9996 8.50114 16.0001C8.05105 15.9997 7.60666 16.1008 7.20102 16.2958C6.79538 16.4908 6.43892 16.7748 6.15814 17.1266C5.17621 16.8035 4.27175 16.2808 3.50164 15.5913C3.66562 15.1724 3.73311 14.7219 3.6991 14.2733C3.66508 13.8246 3.53042 13.3895 3.30514 13.0001C3.08035 12.6101 2.77057 12.2759 2.39882 12.0222C2.02707 11.7684 1.60292 11.6018 1.15789 11.5346C0.947371 10.5226 0.947371 9.47822 1.15789 8.4663C1.60298 8.399 2.02718 8.23222 2.39894 7.97837C2.77069 7.72452 3.08044 7.39012 3.30514 7.00005C3.53031 6.61073 3.6649 6.17568 3.69892 5.72722C3.73293 5.27876 3.66551 4.82839 3.50164 4.40955V4.4088ZM9.62614 11.9478C9.88409 11.8011 10.1105 11.6049 10.2923 11.3704C10.4741 11.1359 10.6077 10.8677 10.6855 10.5814C10.7632 10.295 10.7835 9.99608 10.7453 9.70183C10.707 9.40757 10.611 9.12379 10.4626 8.86682C10.3142 8.60984 10.1165 8.38475 9.88079 8.20451C9.64508 8.02426 9.37604 7.89242 9.08916 7.81658C8.80229 7.74074 8.50325 7.72238 8.20925 7.76258C7.91526 7.80278 7.63212 7.90073 7.37614 8.0508C6.86357 8.35129 6.49067 8.84232 6.3388 9.41674C6.18693 9.99115 6.26844 10.6023 6.56552 11.1169C6.8626 11.6314 7.35115 12.0076 7.92454 12.1632C8.49794 12.3189 9.10963 12.2415 9.62614 11.9478Z" fill="#E0E0E0"/>
</svg>
