<svg width="24" height="24" viewBox="0 0 24 24" fill="none" xmlns="http://www.w3.org/2000/svg">
<path d="M9.62738 16.6323C9.54483 16.6331 9.46301 16.6167 9.38722 16.5839C9.31143 16.5512 9.24335 16.5029 9.18738 16.4423C9.1281 16.3853 9.08093 16.317 9.04871 16.2414C9.01649 16.1658 8.99988 16.0844 8.99988 16.0023C8.99988 15.9201 9.01649 15.8387 9.04871 15.7631C9.08093 15.6875 9.1281 15.6192 9.18738 15.5623L12.9374 11.8123L9.18738 8.06225C9.07069 7.94556 9.00513 7.78729 9.00513 7.62225C9.00513 7.45722 9.07069 7.29895 9.18739 7.18225C9.30408 7.06556 9.46235 7 9.62739 7C9.79242 7 9.95069 7.06556 10.0674 7.18225L14.2574 11.3723C14.3722 11.4899 14.4365 11.6478 14.4365 11.8123C14.4365 11.9767 14.3722 12.1346 14.2574 12.2523L10.0574 16.4423C10.0026 16.5017 9.9361 16.5492 9.86212 16.5819C9.78815 16.6146 9.70825 16.6317 9.62738 16.6323Z" fill="#F8524B"/>
</svg>
