<svg width="32" height="32" viewBox="0 0 32 32" fill="none" xmlns="http://www.w3.org/2000/svg">
<path d="M26.8267 6.0265H22.6667V3.51984C22.6667 3.03984 22.2934 2.6665 21.8134 2.6665C21.3334 2.6665 20.96 3.03984 20.96 3.51984V6.0265H10.9867V3.51984C10.9867 3.03984 10.6134 2.6665 10.1334 2.6665C9.65335 2.6665 9.28002 3.03984 9.28002 3.51984V6.0265H5.17335C3.78669 6.0265 2.66669 7.1465 2.66669 8.47984V26.8265C2.66669 28.2132 3.78669 29.3332 5.17335 29.3332H26.8267C28.2134 29.3332 29.3334 28.2132 29.3334 26.8265V8.47984C29.3334 7.1465 28.2134 6.0265 26.8267 6.0265ZM5.17335 7.67984H9.33335V9.33317C9.33335 9.81317 9.70669 10.1865 10.1867 10.1865C10.6667 10.1865 11.04 9.81317 11.04 9.33317V7.67984H21.0667V9.33317C21.0667 9.81317 21.44 10.1865 21.92 10.1865C22.4 10.1865 22.7734 9.81317 22.7734 9.33317V7.67984H26.9334C27.4134 7.67984 27.7867 8.05317 27.7867 8.53317V12.6932H4.32002V8.53317C4.32002 8.05317 4.69335 7.67984 5.17335 7.67984ZM26.8267 27.6798H5.17335C4.69335 27.6798 4.32002 27.3065 4.32002 26.8265V14.3465H27.68V26.8265C27.68 27.3065 27.3067 27.6798 26.8267 27.6798Z" fill="#F8524B"/>
<path d="M9.01315 16.853H8.95982C8.90649 16.853 8.90649 16.853 8.85315 16.853H8.79982C8.21315 16.9597 7.73315 17.4397 7.73315 18.0797C7.73315 18.773 8.31982 19.3064 8.95982 19.3064C9.59982 19.3064 10.1865 18.7197 10.1865 18.0797C10.1865 17.4397 9.65315 16.9064 9.01315 16.853Z" fill="#F8524B"/>
<path d="M9.06672 22.6665C8.96005 22.6665 8.85339 22.6665 8.74672 22.6665C8.16005 22.7732 7.68005 23.2532 7.68005 23.8932C7.68005 24.5865 8.26672 25.1198 8.90672 25.1198C9.54672 25.1198 10.1334 24.5332 10.1334 23.8932C10.1867 23.3065 9.70672 22.7732 9.06672 22.6665Z" fill="#F8524B"/>
<path d="M16.1068 16.853H16.0535C16.0001 16.853 16.0001 16.853 15.9468 16.853H15.8934C15.3068 16.9597 14.8268 17.4397 14.8268 18.0797C14.8268 18.773 15.4135 19.3064 16.0535 19.3064C16.7468 19.3064 17.2801 18.7197 17.2801 18.0797C17.2268 17.4397 16.7468 16.9064 16.1068 16.853Z" fill="#F8524B"/>
<path d="M16 25.1198C16.6774 25.1198 17.2266 24.5706 17.2266 23.8932C17.2266 23.2157 16.6774 22.6665 16 22.6665C15.3225 22.6665 14.7733 23.2157 14.7733 23.8932C14.7733 24.5706 15.3225 25.1198 16 25.1198Z" fill="#F8524B"/>
<path d="M23.2532 16.853C23.1466 16.853 23.0399 16.853 22.9332 16.853C22.3466 16.9597 21.8666 17.4397 21.8666 18.0797C21.8666 18.773 22.4532 19.3064 23.0932 19.3064C23.7332 19.3064 24.3199 18.7197 24.3199 18.0797C24.3199 17.4397 23.8399 16.9597 23.2532 16.853Z" fill="#F8524B"/>
<path d="M23.2535 22.6665C23.2001 22.6665 23.1468 22.6665 23.0935 22.6665C23.0935 22.6665 23.0935 22.6665 23.0401 22.6665C23.0401 22.6665 23.0401 22.6665 22.9868 22.6665C22.3468 22.7198 21.8135 23.2532 21.8135 23.8932C21.8135 24.5865 22.4001 25.1198 23.0401 25.1198C23.6801 25.1198 24.2668 24.5332 24.2668 23.8932C24.3201 23.3065 23.8401 22.7732 23.2535 22.6665Z" fill="#F8524B"/>
</svg>
