<svg width="24" height="24" viewBox="0 0 24 24" fill="none" xmlns="http://www.w3.org/2000/svg">
<path d="M12.1225 22C11.0975 22 10.1558 21.3333 9.8558 20.3C9.7558 19.9667 9.94747 19.625 10.2808 19.525C10.6141 19.425 10.9558 19.6167 11.0558 19.95C11.2308 20.5417 11.8475 20.875 12.4391 20.7083C12.8058 20.6 13.0891 20.3167 13.1975 19.95C13.2975 19.6167 13.6391 19.425 13.9725 19.525C14.3058 19.625 14.4891 19.9667 14.3975 20.3C14.1725 21.075 13.5725 21.675 12.7975 21.9C12.5725 21.9667 12.3475 22 12.1225 22ZM19.6225 18.25H4.62247C4.3808 18.25 4.16413 18.1167 4.06413 17.9C3.9558 17.6833 3.98913 17.4333 4.1308 17.2417C4.13913 17.2333 5.24747 15.6583 5.24747 10.75C5.24747 7.16667 7.99747 4.21667 11.4975 3.9V2.625C11.4975 2.28333 11.7808 2 12.1225 2C12.4641 2 12.7475 2.28333 12.7475 2.625V3.9C16.2475 4.21667 18.9975 7.16667 18.9975 10.75C18.9975 16.025 20.0308 17.15 20.0475 17.1667C20.2558 17.3333 20.3225 17.6 20.2308 17.85C20.1391 18.1 19.8891 18.25 19.6225 18.25ZM5.6308 17H18.5558C18.1641 15.9917 17.7558 14.125 17.7558 10.75C17.7558 7.65 15.2308 5.125 12.1308 5.125C9.0308 5.125 6.49747 7.65 6.49747 10.75C6.49747 14.0417 6.02247 15.9667 5.6308 17Z" fill="#666666"/>
</svg>
