<svg width="24" height="24" viewBox="0 0 24 24" fill="none" xmlns="http://www.w3.org/2000/svg">
<path fill-rule="evenodd" clip-rule="evenodd" d="M12 2C9.34783 2 6.8043 3.05357 4.92893 4.92893C3.05357 6.8043 2 9.34783 2 12C2 14.6522 3.05357 17.1957 4.92893 19.0711C6.8043 20.9464 9.34783 22 12 22C14.6522 22 17.1957 20.9464 19.0711 19.0711C20.9464 17.1957 22 14.6522 22 12C22 9.34783 20.9464 6.8043 19.0711 4.92893C17.1957 3.05357 14.6522 2 12 2ZM5.81282 5.81282C7.45376 4.17187 9.67936 3.25 12 3.25C14.3206 3.25 16.5462 4.17187 18.1872 5.81282C19.8281 7.45376 20.75 9.67936 20.75 12C20.75 14.3206 19.8281 16.5462 18.1872 18.1872C16.5462 19.8281 14.3206 20.75 12 20.75C9.67936 20.75 7.45376 19.8281 5.81282 18.1872C4.17187 16.5462 3.25 14.3206 3.25 12C3.25 9.67936 4.17187 7.45376 5.81282 5.81282ZM12.1293 7.62992C11.7864 7.60622 11.4436 7.67723 11.1383 7.8352C10.833 7.99317 10.577 8.23202 10.3983 8.52564C10.2196 8.81927 10.1251 9.15637 10.125 9.5001C10.1249 9.84528 9.84506 10.125 9.49988 10.125C9.1547 10.1249 8.87493 9.84504 8.875 9.49986C8.87511 8.92697 9.0327 8.36514 9.33054 7.87577C9.62839 7.38639 10.055 6.98831 10.5638 6.72502C11.0726 6.46174 11.644 6.34339 12.2155 6.3829C12.7871 6.42242 13.3367 6.61828 13.8045 6.94908C14.2722 7.27988 14.64 7.73289 14.8676 8.2586C15.0953 8.78431 15.1741 9.36249 15.0953 9.92994C15.0166 10.4974 14.7834 11.0323 14.4212 11.4761C14.059 11.92 13.5818 12.2558 13.0417 12.4467C12.9198 12.4898 12.8142 12.5697 12.7396 12.6753C12.665 12.7809 12.6249 12.907 12.625 13.0363V13.875C12.625 14.2202 12.3452 14.5 12 14.5C11.6548 14.5 11.375 14.2202 11.375 13.875V13.037C11.3749 12.6492 11.495 12.2706 11.7188 11.9539C11.9427 11.6371 12.2593 11.3975 12.625 11.2682C12.9491 11.1536 13.2354 10.9522 13.4527 10.6859C13.67 10.4196 13.81 10.0986 13.8572 9.75815C13.9044 9.41768 13.8572 9.07077 13.7206 8.75534C13.584 8.43992 13.3633 8.16811 13.0827 7.96963C12.802 7.77115 12.4722 7.65363 12.1293 7.62992ZM11.4792 15.908C11.6333 15.805 11.8146 15.75 12 15.75C12.2486 15.75 12.4871 15.8488 12.6629 16.0246C12.8387 16.2004 12.9375 16.4389 12.9375 16.6875C12.9375 16.8729 12.8825 17.0542 12.7795 17.2083C12.6765 17.3625 12.5301 17.4827 12.3588 17.5536C12.1875 17.6246 11.999 17.6432 11.8171 17.607C11.6352 17.5708 11.4682 17.4815 11.3371 17.3504C11.206 17.2193 11.1167 17.0522 11.0805 16.8704C11.0443 16.6885 11.0629 16.5 11.1339 16.3287C11.2048 16.1574 11.325 16.011 11.4792 15.908Z" fill="#666666"/>
</svg>
