<svg width="32" height="32" viewBox="0 0 32 32" fill="none" xmlns="http://www.w3.org/2000/svg">
<path d="M16 26.6668C21.891 26.6668 26.6666 21.8912 26.6666 16.0002C26.6666 10.1091 21.891 5.3335 16 5.3335C10.1089 5.3335 5.33331 10.1091 5.33331 16.0002C5.33331 21.8912 10.1089 26.6668 16 26.6668Z" stroke="#F8524B" stroke-width="1.5" stroke-linecap="round" stroke-linejoin="round"/>
<path d="M16 1.3335V5.3335" stroke="#F8524B" stroke-width="1.5" stroke-linecap="round" stroke-linejoin="round"/>
<path d="M13.3333 1.3335H18.6666" stroke="#F8524B" stroke-width="1.5" stroke-linecap="round" stroke-linejoin="round"/>
<path d="M26.3707 5.62939L23.5427 8.4574" stroke="#F8524B" stroke-width="1.5" stroke-linecap="round" stroke-linejoin="round"/>
<path d="M24.4853 3.74414L28.256 7.51481" stroke="#F8524B" stroke-width="1.5" stroke-linecap="round" stroke-linejoin="round"/>
<path d="M30.6666 16H26.6666" stroke="#F8524B" stroke-width="1.5" stroke-linecap="round" stroke-linejoin="round"/>
<path d="M30.6666 13.3335V18.6668" stroke="#F8524B" stroke-width="1.5" stroke-linecap="round" stroke-linejoin="round"/>
<path d="M26.3707 26.371L23.5427 23.543" stroke="#F8524B" stroke-width="1.5" stroke-linecap="round" stroke-linejoin="round"/>
<path d="M28.256 24.4854L24.4853 28.256" stroke="#F8524B" stroke-width="1.5" stroke-linecap="round" stroke-linejoin="round"/>
<path d="M16 30.667V26.667" stroke="#F8524B" stroke-width="1.5" stroke-linecap="round" stroke-linejoin="round"/>
<path d="M18.6666 30.667H13.3333" stroke="#F8524B" stroke-width="1.5" stroke-linecap="round" stroke-linejoin="round"/>
<path d="M5.62933 26.371L8.45733 23.543" stroke="#F8524B" stroke-width="1.5" stroke-linecap="round" stroke-linejoin="round"/>
<path d="M7.51462 28.256L3.74396 24.4854" stroke="#F8524B" stroke-width="1.5" stroke-linecap="round" stroke-linejoin="round"/>
<path d="M1.33331 16H5.33331" stroke="#F8524B" stroke-width="1.5" stroke-linecap="round" stroke-linejoin="round"/>
<path d="M1.33331 18.6668V13.3335" stroke="#F8524B" stroke-width="1.5" stroke-linecap="round" stroke-linejoin="round"/>
<path d="M5.62933 5.62939L8.45733 8.4574" stroke="#F8524B" stroke-width="1.5" stroke-linecap="round" stroke-linejoin="round"/>
<path d="M3.74396 7.51481L7.51462 3.74414" stroke="#F8524B" stroke-width="1.5" stroke-linecap="round" stroke-linejoin="round"/>
<path d="M13.5026 9.15625C12.8359 11.0229 14.0906 13.4923 17.7693 12.2669C21.4479 11.0416 22.8359 14.8389 20.9039 16.3336" stroke="#F8524B" stroke-width="1.5" stroke-linecap="round" stroke-linejoin="round"/>
<path d="M10.456 19.7031C8.77729 16.7697 13.9386 14.1857 14.5013 19.0364C14.86 22.1337 18.1013 21.8591 18.5346 19.9377" stroke="#F8524B" stroke-width="1.5" stroke-linecap="round" stroke-linejoin="round"/>
</svg>
