<svg width="33" height="32" viewBox="0 0 33 32" fill="none" xmlns="http://www.w3.org/2000/svg">
<path fill-rule="evenodd" clip-rule="evenodd" d="M16.6666 2.6665C13.1304 2.6665 9.73904 4.07126 7.23856 6.57175C4.73807 9.07223 3.33331 12.4636 3.33331 15.9998C3.33331 19.5361 4.73807 22.9274 7.23856 25.4279C9.73904 27.9284 13.1304 29.3332 16.6666 29.3332C20.2029 29.3332 23.5943 27.9284 26.0947 25.4279C28.5952 22.9274 30 19.5361 30 15.9998C30 12.4636 28.5952 9.07223 26.0947 6.57175C23.5943 4.07126 20.2029 2.6665 16.6666 2.6665ZM8.41707 7.75026C10.605 5.56233 13.5725 4.33317 16.6666 4.33317C19.7608 4.33317 22.7283 5.56233 24.9162 7.75026C27.1042 9.93818 28.3333 12.9056 28.3333 15.9998C28.3333 19.094 27.1042 22.0615 24.9162 24.2494C22.7283 26.4373 19.7608 27.6665 16.6666 27.6665C13.5725 27.6665 10.605 26.4373 8.41707 24.2494C6.22914 22.0615 4.99998 19.094 4.99998 15.9998C4.99998 12.9056 6.22914 9.93818 8.41707 7.75026ZM15 7.6665C14.558 7.6665 14.134 7.8421 13.8215 8.15466C13.5089 8.46722 13.3333 8.89114 13.3333 9.33317V12.6665H9.99998C9.55795 12.6665 9.13403 12.8421 8.82147 13.1547C8.50891 13.4672 8.33331 13.8911 8.33331 14.3332V17.6665C8.33331 18.1085 8.50891 18.5325 8.82147 18.845C9.13403 19.1576 9.55795 19.3332 9.99998 19.3332H13.3333V22.6665C13.3333 23.1085 13.5089 23.5325 13.8215 23.845C14.134 24.1576 14.558 24.3332 15 24.3332H18.3333C18.7753 24.3332 19.1993 24.1576 19.5118 23.845C19.8244 23.5325 20 23.1085 20 22.6665V19.3332H23.3333C23.7753 19.3332 24.1993 19.1576 24.5118 18.845C24.8244 18.5325 25 18.1085 25 17.6665V14.3332C25 13.8911 24.8244 13.4672 24.5118 13.1547C24.1993 12.8421 23.7753 12.6665 23.3333 12.6665H20V9.33317C20 8.89114 19.8244 8.46722 19.5118 8.15466C19.1993 7.8421 18.7753 7.6665 18.3333 7.6665H15ZM15 9.33317H18.3333V13.4998C18.3333 13.9601 18.7064 14.3332 19.1666 14.3332L23.3333 14.3332L23.3333 17.6665H19.1666C18.7064 17.6665 18.3333 18.0396 18.3333 18.4998V22.6665H15V18.4998C15 18.0396 14.6269 17.6665 14.1666 17.6665H9.99998V14.3332L14.1666 14.3332C14.6269 14.3332 15 13.9601 15 13.4998L15 9.33317Z" fill="#F8524B"/>
</svg>
