<svg width="33" height="32" viewBox="0 0 33 32" fill="none" xmlns="http://www.w3.org/2000/svg">
<path d="M30 13.4998C30 11.2221 28.1111 9.33317 25.8333 9.33317C23.5555 9.33317 21.6666 11.2221 21.6666 13.4998C21.6666 15.4998 23.1111 17.2221 25 17.5554V20.9998C25 24.6665 22 27.6665 18.3333 27.6665C14.6666 27.6665 11.6666 24.6665 11.6666 20.9998V20.9443C15.3889 20.5554 18.3333 17.3332 18.3333 13.4998V6.83317C18.3333 5.44428 17.2222 4.33317 15.8333 4.33317H15V3.49984C15 3.05539 14.6111 2.6665 14.1666 2.6665C13.7222 2.6665 13.3333 3.05539 13.3333 3.49984V7.6665C13.3333 8.11095 13.7222 8.49984 14.1666 8.49984C14.6111 8.49984 15 8.11095 15 7.6665V5.99984H15.8333C16.2778 5.99984 16.6666 6.38873 16.6666 6.83317V13.4998C16.6666 16.7221 14.0555 19.3332 10.8333 19.3332C7.61109 19.3332 4.99998 16.7221 4.99998 13.4998V6.83317C4.99998 6.38873 5.38887 5.99984 5.83331 5.99984H6.66665V7.6665C6.66665 8.11095 7.05554 8.49984 7.49998 8.49984C7.94442 8.49984 8.33331 8.11095 8.33331 7.6665V3.49984C8.33331 3.05539 7.94442 2.6665 7.49998 2.6665C7.05554 2.6665 6.66665 3.05539 6.66665 3.49984V4.33317H5.83331C4.44442 4.33317 3.33331 5.44428 3.33331 6.83317V13.4998C3.33331 17.3332 6.27776 20.5554 9.99998 20.9443V20.9998C9.99998 25.611 13.7222 29.3332 18.3333 29.3332C22.9444 29.3332 26.6666 25.611 26.6666 20.9998V17.5554C28.5555 17.2221 30 15.4998 30 13.4998ZM25.8333 15.9998C24.4444 15.9998 23.3333 14.8887 23.3333 13.4998C23.3333 12.1109 24.4444 10.9998 25.8333 10.9998C27.2222 10.9998 28.3333 12.1109 28.3333 13.4998C28.3333 14.8887 27.2222 15.9998 25.8333 15.9998Z" fill="white"/>
</svg>
