<svg width="33" height="32" viewBox="0 0 33 32" fill="none" xmlns="http://www.w3.org/2000/svg">
<path fill-rule="evenodd" clip-rule="evenodd" d="M23.3838 4.33317C23.6013 4.33305 23.8102 4.41794 23.9659 4.56972L27.2484 7.77325C27.328 7.85088 27.3913 7.94367 27.4345 8.04614C27.4777 8.14859 27.5 8.25873 27.5 8.36992V26.8332C27.5 27.0542 27.4122 27.2661 27.2559 27.4224C27.0997 27.5787 26.8877 27.6665 26.6667 27.6665H6.66669C6.44567 27.6665 6.23371 27.5787 6.07743 27.4224C5.92115 27.2661 5.83335 27.0542 5.83335 26.8332V5.1665C5.83335 4.94549 5.92115 4.73353 6.07743 4.57725C6.23371 4.42097 6.44567 4.33317 6.66669 4.33317L23.3838 4.33317ZM25.1295 3.3765C24.6624 2.92105 24.0358 2.66626 23.3834 2.6665H6.66669C6.00365 2.6665 5.36776 2.9299 4.89892 3.39874C4.43008 3.86758 4.16669 4.50346 4.16669 5.1665V26.8332C4.16669 27.4962 4.43008 28.1321 4.89892 28.6009C5.36776 29.0698 6.00364 29.3332 6.66669 29.3332H26.6667C27.3297 29.3332 27.9656 29.0698 28.4345 28.6009C28.9033 28.1321 29.1667 27.4962 29.1667 26.8332V8.36976C29.1667 8.03611 29.0998 7.70584 28.9702 7.39842C28.8405 7.091 28.6506 6.81264 28.4117 6.57976L25.1295 3.3765ZM10.0501 10.9998C9.58983 10.9998 9.21674 11.3729 9.21674 11.8332C9.21674 12.2934 9.58983 12.6665 10.0501 12.6665H23.3834C23.8436 12.6665 24.2167 12.2934 24.2167 11.8332C24.2167 11.3729 23.8436 10.9998 23.3834 10.9998H10.0501ZM9.21674 16.8332C9.21674 16.3729 9.58983 15.9998 10.0501 15.9998H23.3834C23.8436 15.9998 24.2167 16.3729 24.2167 16.8332C24.2167 17.2934 23.8436 17.6665 23.3834 17.6665H10.0501C9.58983 17.6665 9.21674 17.2934 9.21674 16.8332ZM10.0501 20.9998C9.58983 20.9998 9.21674 21.3729 9.21674 21.8332C9.21674 22.2934 9.58983 22.6665 10.0501 22.6665H16.7167C17.177 22.6665 17.5501 22.2934 17.5501 21.8332C17.5501 21.3729 17.177 20.9998 16.7167 20.9998H10.0501Z" fill="#F8524B"/>
</svg>
