<svg width="26" height="26" viewBox="0 0 26 26" fill="none" xmlns="http://www.w3.org/2000/svg">
<path d="M14.4109 1.85896L17.4883 8.50564H23.4756C23.7775 8.49376 24.0758 8.57564 24.3295 8.74006C24.5833 8.90449 24.7802 9.14344 24.8933 9.42426C25.0064 9.70508 25.0303 10.0141 24.9616 10.309C24.8928 10.6039 24.7349 10.8703 24.5094 11.0719L19.3204 16.1964L22.2003 22.8251C22.326 23.1286 22.3537 23.4639 22.2794 23.784C22.2051 24.1041 22.0326 24.3928 21.7862 24.6095C21.5398 24.8263 21.2318 24.9602 20.9055 24.9924C20.5792 25.0247 20.251 24.9536 19.9671 24.7893L13.0078 20.8669L6.04063 24.7893C5.75669 24.9536 5.42852 25.0247 5.10222 24.9924C4.77593 24.9602 4.46792 24.8263 4.22149 24.6095C3.97505 24.3928 3.80257 24.1041 3.72829 23.784C3.65401 23.4639 3.68167 23.1286 3.80737 22.8251L6.68725 16.2004L1.49827 11.0759C1.27096 10.8758 1.11102 10.6101 1.04044 10.3153C0.969847 10.0205 0.992067 9.71098 1.10404 9.42932C1.21602 9.14765 1.41226 8.90764 1.66582 8.74225C1.91937 8.57687 2.21779 8.49421 2.5201 8.50564H8.50739L11.5809 1.85896C11.716 1.59992 11.9193 1.38291 12.1687 1.23148C12.4182 1.08006 12.7042 1 12.9959 1C13.2875 1 13.5736 1.08006 13.823 1.23148C14.0725 1.38291 14.2758 1.59992 14.4109 1.85896Z" fill="white" stroke="url(#paint0_linear_355_3887)" stroke-width="2" stroke-linecap="round" stroke-linejoin="round"/>
<defs>
<linearGradient id="paint0_linear_355_3887" x1="25" y1="7.48649" x2="-0.489698" y2="13.6316" gradientUnits="userSpaceOnUse">
<stop stop-color="#ED3957"/>
<stop offset="1" stop-color="#F8524B"/>
</linearGradient>
</defs>
</svg>
