<svg width="118" height="130" viewBox="0 0 118 130" fill="none" xmlns="http://www.w3.org/2000/svg">
<path d="M37.621 63.5891C40.6631 63.5891 42.8105 63.4459 42.9894 63.428L42.5778 57.4289C42.4347 57.4289 28.6557 58.3243 21.5693 55.4591C15.9325 53.1669 9.70506 37.3009 6.94926 23.2255C5.15978 14.2718 6.16189 11.5498 6.94926 10.6903C7.11031 10.5112 7.53979 9.99186 9.13243 9.99186H14.6261C16.2188 14.7911 18.7598 19.6082 22.5893 19.6082H33.6841V13.6808H23.0367C21.506 11.4259 20.3909 8.91509 19.744 6.26709L19.1356 4.06447H9.13243C7.84913 3.98681 6.56534 4.2084 5.38221 4.71182C4.19908 5.21524 3.14891 5.98673 2.31448 6.96548C-0.298164 10.0993 -0.691837 15.4716 1.09765 24.4253C2.53435 31.6641 4.66782 38.7467 7.4682 45.5741C11.0472 54.0981 15.0735 59.2913 19.3683 61.0284C24.6472 63.1773 32.4315 63.5891 37.621 63.5891Z" fill="#FFC727"/>
<path d="M95.296 63.5891C92.2539 63.5891 90.1065 63.4458 89.9276 63.4279L90.3391 57.4289C90.4823 57.4289 104.261 58.3243 111.348 55.4591C116.985 53.1669 123.212 37.3008 125.968 23.2255C127.757 14.2717 126.755 11.5498 125.968 10.6902C125.807 10.5111 125.395 9.99183 123.802 9.99183H118.309C116.734 14.791 114.175 19.6082 110.346 19.6082H99.2508V13.6808H109.988C111.518 11.4259 112.633 8.91505 113.28 6.26705L113.889 4.06443H123.91C125.19 3.98959 126.47 4.21256 127.65 4.71588C128.83 5.21921 129.877 5.98919 130.71 6.96545C133.305 10.1172 133.68 15.5252 131.909 24.4969C130.472 31.7357 128.339 38.8183 125.538 45.6457C121.959 54.1697 117.933 59.3629 113.638 61.0999C108.27 63.1772 100.486 63.5891 95.296 63.5891Z" fill="#FFC727"/>
<path d="M35.0978 123.634V127H97.8371V123.634H92.4507L88.4602 117.885L70.1896 110.615V74.9609H62.7274V110.615L44.4747 117.885L40.4663 123.634H35.0978Z" fill="#FFC727"/>
<path d="M60.6516 79.7061H72.2475V75.9455H60.6516V79.7061Z" fill="#FFC727"/>
<path opacity="0.2" d="M60.6694 78.3451L72.2474 77.8258V75.9634H60.6694V78.3451Z" fill="black"/>
<path d="M28.101 0C28.101 0 31.0178 48.5831 38.6768 62.0317C46.3358 75.4803 62.6559 76.6084 66.4675 76.6084C70.2791 76.6084 86.5992 75.4624 94.2402 62.0317C101.881 48.6011 104.888 0 104.888 0H28.101Z" fill="#FFC727"/>
<path opacity="0.2" d="M92.4508 123.634H40.4663L41.8979 121.574L89.7486 119.748L92.4508 123.634Z" fill="black"/>
<path opacity="0.1" d="M66.4674 15.3467L70.5833 23.7095L79.7991 25.0347L73.1243 31.553L74.6991 40.7396L66.4674 36.406L58.2179 40.7396L59.7927 31.553L53.1179 25.0347L62.3337 23.7095L66.4674 15.3467Z" fill="black"/>
<path d="M17.4946 85.6547L12.9547 86.4885L11.9444 91.2863L10.9341 86.4885L6.39423 85.6419L10.9086 84.5386L11.9444 80.0103L12.9803 84.5386L17.4946 85.6547Z" fill="#FFC727"/>
<path d="M104.456 98.0082L99.9162 98.842L98.906 103.64L97.8957 98.842L93.3558 97.9954L97.8701 96.8921L98.906 92.3638L99.9418 96.8921L104.456 98.0082Z" fill="#FFC727"/>
<path d="M26.8302 75.687C26.4571 75.687 26.0993 75.8357 25.8355 76.1003C25.5717 76.365 25.4235 76.7239 25.4235 77.0981C25.4235 77.4724 25.5717 77.8313 25.8355 78.0959C26.0993 78.3606 26.4571 78.5092 26.8302 78.5092C27.2033 78.5092 27.5611 78.3606 27.8249 78.0959C28.0887 77.8313 28.2369 77.4724 28.2369 77.0981C28.2369 76.7239 28.0887 76.365 27.8249 76.1003C27.5611 75.8357 27.2033 75.687 26.8302 75.687Z" fill="#FFC727"/>
<ellipse opacity="0.2" cx="64.125" cy="127" rx="53.4375" ry="2.37384" fill="#0D0050"/>
</svg>
